<?xml version="1.0" encoding="UTF-8" standalone="no" ?>
<!DOCTYPE svg PUBLIC "-//W3C//DTD SVG 1.1//EN" "http://www.w3.org/Graphics/SVG/1.1/DTD/svg11.dtd">
<svg xmlns="http://www.w3.org/2000/svg" xmlns:xlink="http://www.w3.org/1999/xlink" version="1.1" width="500" height="500" viewBox="0 0 500 500" xml:space="preserve">
<desc>Created with Fabric.js 3.6.3</desc>
<defs>
</defs>
<g transform="matrix(2.4418339678584076 0 0 2.4418339678584076 250 193.27250391488406)"  >
<path style="stroke: none; stroke-width: 1; stroke-dasharray: none; stroke-linecap: butt; stroke-dashoffset: 0; stroke-linejoin: miter; stroke-miterlimit: 4; fill: rgb(0,0,0); fill-rule: nonzero; opacity: 1;"  transform=" translate(-49.999, -49.99999999999999)" d="M 93.146 53.175 c 2.949 -1.872 3.821 -6.621 4.664 -8.872 l 0.024 -0.169 l -0.17 0.017 c -4.612 0.469 -7.021 2.95 -8.284 4.802 c 0.308 -1.953 0.468 -3.929 0.468 -5.919 c 0 -0.024 -0.001 -0.047 -0.001 -0.071 l 0.02 0.027 c 0 0 2.312 -0.332 4.461 -2.856 c 2.264 -2.66 1.694 -7.454 1.835 -9.854 l -0.027 -0.169 l -0.157 0.067 c -4.351 1.846 -5.896 5.012 -6.531 7.159 c -0.242 -1.709 -0.596 -3.394 -1.051 -5.045 c 0.445 -0.238 2.202 -1.305 3.388 -3.925 c 1.438 -3.183 -0.437 -7.632 -0.966 -9.977 l -0.072 -0.155 l -0.133 0.107 c -3.421 2.776 -4.181 5.979 -4.282 8.215 c -0.536 -1.193 -1.13 -2.36 -1.782 -3.499 l 0.024 0.011 c 0 0 1.777 -1.425 2.328 -4.61 c 0.581 -3.356 -2.275 -7.098 -3.348 -9.182 l -0.106 -0.128 l -0.099 0.134 c -2.648 3.588 -2.477 6.911 -1.983 9.04 c -0.399 -0.513 -0.813 -1.018 -1.24 -1.514 c -0.071 -1.121 -0.642 -2.509 -1.95 -3.98 c -1.437 -1.618 -4.195 -3.92 -9.004 -3.632 l -0.166 0.01 l 0.051 0.159 c 1.163 2.035 2.745 6.469 5.876 7.809 c 1.76 0.753 3.229 0.81 4.141 0.731 c 0.478 0.559 0.938 1.13 1.381 1.712 c -0.042 -0.017 -0.081 -0.033 -0.122 -0.049 c -2.021 -0.772 -5.531 -1.543 -9.664 0.929 l -0.144 0.085 l 0.117 0.118 c 1.971 1.269 5.419 4.474 8.815 4.22 c 1.728 -0.129 2.98 -0.656 3.776 -1.119 c 0.786 1.371 1.484 2.787 2.095 4.239 c -0.113 -0.087 -0.231 -0.175 -0.353 -0.261 c -1.809 -1.286 -5.096 -2.953 -9.835 -1.561 l -0.164 0.048 l 0.087 0.147 c 1.63 1.767 4.231 5.834 7.668 6.454 c 1.856 0.335 3.302 0.088 4.204 -0.188 c 0.455 1.647 0.804 3.329 1.038 5.036 c -0.009 -0.011 -0.016 -0.021 -0.024 -0.032 c -1.382 -1.736 -4.079 -4.248 -9.02 -4.222 l -0.17 0.001 l 0.042 0.166 c 1.077 2.149 2.451 6.778 5.582 8.325 c 1.611 0.797 3.008 0.981 3.953 0.984 c 0 0.032 0.001 0.064 0.001 0.096 c 0 2.039 -0.171 4.064 -0.508 6.063 c -0.019 -0.049 -0.035 -0.098 -0.055 -0.148 c -0.807 -2.068 -2.642 -5.264 -7.368 -6.698 l -0.163 -0.05 l -0.009 0.17 c 0.395 2.372 0.339 7.2 2.873 9.604 c 1.321 1.253 2.618 1.841 3.521 2.118 c -0.572 1.825 -1.288 3.616 -2.138 5.365 c -0.003 -0.17 -0.009 -0.344 -0.021 -0.523 c -0.136 -2.215 -0.903 -5.818 -4.965 -8.631 l -0.142 -0.097 l -0.06 0.16 c -0.35 2.379 -1.88 6.958 -0.203 10.021 c 0.998 1.822 2.232 2.814 3.016 3.301 c -1.044 1.63 -2.214 3.212 -3.504 4.734 c 0.032 -0.146 0.062 -0.294 0.089 -0.446 c 0.407 -2.275 0.518 -6.111 -2.901 -9.956 l -0.118 -0.133 l -0.101 0.146 c -0.938 2.32 -3.614 6.578 -2.67 10.091 c 0.546 2.031 1.509 3.32 2.18 4.021 c -0.188 0.178 -0.374 0.356 -0.564 0.532 c -1.361 1.253 -2.711 2.37 -4.043 3.374 c 0.043 -0.107 0.087 -0.214 0.127 -0.326 c 0.845 -2.292 1.667 -6.265 -1.181 -10.897 l -0.099 -0.161 l -0.133 0.135 c -1.405 2.242 -4.976 6.18 -4.642 10.01 c 0.173 1.992 0.81 3.421 1.351 4.31 c -1.962 1.158 -3.866 2.094 -5.695 2.87 c 0.175 -0.195 0.351 -0.402 0.524 -0.626 c 1.399 -1.802 3.255 -5.104 2.031 -10.033 l -0.042 -0.17 l -0.155 0.082 c -1.886 1.598 -6.177 4.091 -6.964 7.595 c -0.509 2.264 -0.136 3.958 0.154 4.812 c -2.058 0.672 -3.977 1.184 -5.719 1.649 c -0.014 0.003 -0.028 0.007 -0.042 0.01 c -0.014 -0.003 -0.028 -0.007 -0.042 -0.01 c -1.743 -0.466 -3.662 -0.978 -5.719 -1.649 c 0.29 -0.854 0.662 -2.549 0.154 -4.812 c -0.787 -3.504 -5.079 -5.997 -6.964 -7.595 l -0.156 -0.082 l -0.042 0.17 c -1.224 4.929 0.631 8.231 2.032 10.033 c 0.173 0.224 0.349 0.431 0.524 0.626 c -1.83 -0.776 -3.734 -1.712 -5.696 -2.87 c 0.541 -0.889 1.177 -2.317 1.35 -4.31 c 0.334 -3.83 -3.236 -7.768 -4.642 -10.01 l -0.131 -0.135 l -0.098 0.161 c -2.848 4.633 -2.026 8.605 -1.183 10.897 c 0.042 0.112 0.085 0.219 0.128 0.325 c -1.332 -1.003 -2.681 -2.12 -4.042 -3.373 c -0.191 -0.176 -0.378 -0.354 -0.566 -0.532 c 0.671 -0.7 1.635 -1.989 2.18 -4.021 c 0.944 -3.513 -1.731 -7.771 -2.67 -10.091 l -0.101 -0.146 L 24.2 58.021 c -3.419 3.845 -3.31 7.681 -2.902 9.956 c 0.027 0.152 0.058 0.301 0.089 0.446 c -1.29 -1.522 -2.459 -3.104 -3.503 -4.734 c 0.783 -0.486 2.017 -1.479 3.015 -3.301 c 1.678 -3.063 0.148 -7.643 -0.203 -10.021 l -0.06 -0.16 l -0.14 0.097 c -4.062 2.812 -4.83 6.416 -4.966 8.631 c -0.011 0.18 -0.017 0.354 -0.02 0.523 c -0.85 -1.749 -1.566 -3.54 -2.139 -5.365 c 0.903 -0.277 2.2 -0.865 3.521 -2.118 c 2.535 -2.404 2.479 -7.232 2.873 -9.604 l -0.008 -0.17 l -0.164 0.05 c -4.728 1.435 -6.561 4.63 -7.368 6.698 c -0.02 0.05 -0.036 0.099 -0.055 0.148 c -0.336 -2 -0.508 -4.025 -0.508 -6.064 c 0 -0.032 0.001 -0.064 0.001 -0.096 c 0.944 -0.003 2.341 -0.187 3.953 -0.984 c 3.131 -1.547 4.504 -6.176 5.583 -8.325 l 0.042 -0.166 l -0.171 -0.001 c -4.94 -0.026 -7.636 2.486 -9.019 4.222 c -0.008 0.011 -0.016 0.022 -0.024 0.033 c 0.234 -1.707 0.582 -3.389 1.037 -5.037 c 0.903 0.276 2.348 0.523 4.205 0.188 c 3.438 -0.62 6.039 -4.688 7.669 -6.454 l 0.086 -0.147 l -0.164 -0.048 c -4.74 -1.393 -8.026 0.274 -9.835 1.561 c -0.122 0.086 -0.239 0.174 -0.353 0.261 c 0.61 -1.452 1.309 -2.868 2.095 -4.239 c 0.796 0.462 2.049 0.99 3.776 1.119 c 3.396 0.254 6.845 -2.951 8.815 -4.22 l 0.118 -0.118 l -0.143 -0.085 c -4.134 -2.473 -7.644 -1.702 -9.664 -0.929 c -0.042 0.016 -0.081 0.033 -0.123 0.049 c 0.443 -0.582 0.902 -1.153 1.38 -1.712 c 0.912 0.079 2.382 0.022 4.141 -0.731 c 3.131 -1.34 4.713 -5.774 5.876 -7.809 l 0.051 -0.159 l -0.167 -0.01 c -4.808 -0.288 -7.567 2.014 -9.004 3.632 c -1.308 1.471 -1.877 2.859 -1.949 3.98 c -0.427 0.496 -0.841 1.001 -1.241 1.514 c 0.495 -2.129 0.666 -5.452 -1.982 -9.04 l -0.099 -0.134 l -0.106 0.128 c -1.073 2.084 -3.929 5.826 -3.348 9.182 c 0.552 3.185 2.328 4.61 2.328 4.61 l 0.025 -0.011 c -0.653 1.138 -1.247 2.306 -1.782 3.499 c -0.101 -2.235 -0.861 -5.439 -4.282 -8.215 l -0.132 -0.107 L 9.182 18.39 c -0.53 2.345 -2.404 6.794 -0.965 9.977 c 1.186 2.62 2.942 3.688 3.388 3.925 c -0.456 1.651 -0.809 3.336 -1.051 5.045 c -0.636 -2.146 -2.182 -5.313 -6.533 -7.159 l -0.157 -0.067 L 3.837 30.28 c 0.14 2.4 -0.43 7.194 1.834 9.854 c 2.149 2.525 4.46 2.856 4.46 2.856 l 0.021 -0.027 c 0 0.024 -0.001 0.047 -0.001 0.071 c 0 1.99 0.16 3.965 0.467 5.918 c -1.262 -1.852 -3.672 -4.332 -8.284 -4.801 l -0.17 -0.017 l 0.024 0.169 c 0.843 2.251 1.715 7 4.664 8.872 c 2.686 1.705 4.912 1.438 5.088 1.413 c 0.495 1.571 1.092 3.118 1.785 4.636 c -1.802 -1.326 -4.772 -2.747 -9.082 -1.83 l -0.167 0.035 l 0.075 0.154 c 1.491 1.885 3.774 6.139 7.154 7.019 c 2.412 0.628 4.188 0.188 4.921 -0.068 c 0.935 1.458 1.964 2.878 3.089 4.253 c -2.141 -0.933 -5.566 -1.733 -9.813 0.307 l -0.161 0.078 l 0.114 0.137 c 1.973 1.541 5.33 5.284 8.967 5.344 c 2.779 0.045 4.516 -0.969 5.089 -1.365 c 0.179 0.168 0.355 0.337 0.537 0.505 c 1.251 1.151 2.491 2.191 3.718 3.137 c -2.385 -0.622 -6.229 -0.959 -10.432 2.064 l -0.152 0.109 l 0.144 0.121 c 2.337 1.239 6.522 4.516 10.318 3.907 c 3.604 -0.581 5.237 -2.564 5.237 -2.564 l -0.046 -0.112 c -0.014 -0.035 -0.031 -0.068 -0.046 -0.104 c 1.618 0.964 3.197 1.777 4.729 2.477 c -2.281 0.229 -5.458 1.187 -8.103 4.743 l -0.104 0.142 l 0.162 0.067 c 2.432 0.441 7.083 2.173 10.29 0.556 c 2.121 -1.07 3.194 -2.475 3.652 -3.229 c 1.15 0.374 2.259 0.7 3.317 0.996 c -3.044 0.89 -5.489 1.872 -7.147 3.748 l 1.132 1.001 c 1.79 -2.025 4.92 -2.915 8.881 -3.974 c 3.961 1.059 7.091 1.948 8.881 3.974 l 1.133 -1.001 c -1.658 -1.876 -4.104 -2.858 -7.147 -3.748 c 1.059 -0.296 2.168 -0.622 3.318 -0.996 c 0.456 0.754 1.531 2.158 3.651 3.229 c 3.206 1.617 7.858 -0.114 10.289 -0.556 l 0.162 -0.067 l -0.104 -0.142 c -2.646 -3.557 -5.822 -4.515 -8.104 -4.743 c 1.531 -0.699 3.111 -1.513 4.728 -2.476 c -0.015 0.034 -0.032 0.067 -0.046 0.103 l -0.045 0.112 c 0 0 1.633 1.983 5.236 2.564 c 3.796 0.608 7.981 -2.668 10.318 -3.907 l 0.145 -0.121 l -0.153 -0.109 c -4.201 -3.023 -8.046 -2.687 -10.431 -2.064 c 1.226 -0.945 2.467 -1.985 3.718 -3.137 c 0.181 -0.168 0.357 -0.337 0.536 -0.505 c 0.573 0.396 2.311 1.41 5.089 1.365 c 3.637 -0.06 6.994 -3.803 8.967 -5.344 l 0.114 -0.137 l -0.16 -0.078 c -4.248 -2.041 -7.673 -1.239 -9.814 -0.307 c 1.126 -1.375 2.155 -2.795 3.09 -4.253 c 0.734 0.257 2.509 0.696 4.921 0.068 c 3.381 -0.88 5.663 -5.134 7.155 -7.019 l 0.074 -0.154 l -0.167 -0.035 c -4.31 -0.917 -7.279 0.504 -9.081 1.83 c 0.692 -1.518 1.289 -3.064 1.784 -4.636 C 88.235 54.612 90.462 54.879 93.146 53.175 z M 23.856 61.577 c -0.297 4.328 -0.406 7.138 -0.648 8.873 c -0.033 -0.034 -0.067 -0.069 -0.099 -0.104 C 23.042 68.83 22.953 64.545 23.856 61.577 z M 19.368 53.545 c -1.281 4.041 -2.024 6.661 -2.649 8.216 c -0.019 -0.033 -0.039 -0.066 -0.057 -0.099 C 16.918 60.335 17.812 56.176 19.368 53.545 z M 17.529 44.991 c -2.291 3.223 -3.758 5.411 -4.814 6.737 c -0.016 -0.065 -0.032 -0.131 -0.047 -0.195 C 13.486 50.084 15.44 46.846 17.529 44.991 z M 18.289 35.47 c -3.104 2.374 -5.139 4.019 -6.539 4.979 c 0.005 -0.071 0.008 -0.143 0.013 -0.213 C 13 39.071 15.781 36.608 18.289 35.47 z M 21.631 27.377 c -3.798 1.483 -6.259 2.527 -7.868 3.042 c 0.018 -0.052 0.037 -0.102 0.054 -0.153 C 15.194 29.547 18.762 27.798 21.631 27.377 z M 26.003 20.802 c -3.785 0.453 -6.311 0.825 -7.961 0.936 c 0.038 -0.057 0.075 -0.114 0.113 -0.171 C 19.766 21.204 23.33 20.513 26.003 20.802 z M 28.013 11.004 c -3.152 2.148 -5.222 3.644 -6.636 4.503 l -0.104 -0.098 C 22.463 14.396 25.419 12.014 28.013 11.004 z M 16.67 12.628 c 0.653 3.148 0.034 7.696 -0.1 8.597 c -0.01 0.016 -0.021 0.032 -0.032 0.049 C 16.423 19.666 16.573 16.963 16.67 12.628 z M 10.265 21.659 c 1.334 2.71 1.912 6.86 2.075 8.252 c -0.019 0.053 -0.035 0.106 -0.053 0.16 C 11.78 28.475 11.238 25.801 10.265 21.659 z M 5.782 33.122 c 2.3 2.527 4.178 7.093 4.431 7.723 c -0.001 0.009 -0.001 0.02 -0.002 0.029 C 9.268 39.524 7.984 37.046 5.782 33.122 z M 4.888 46.442 c 2.808 1.656 5.797 5.196 6.438 5.976 c 0.006 0.023 0.012 0.047 0.018 0.07 C 10.043 51.462 8.097 49.49 4.888 46.442 z M 7.776 58.794 c 2.749 0.62 6.058 2.54 7.453 3.401 c 0.04 0.071 0.078 0.142 0.117 0.213 C 13.781 61.769 11.417 60.547 7.776 58.794 z M 13.418 69.741 c 3.105 -0.052 7.207 1.215 8.642 1.695 c 0.042 0.044 0.085 0.087 0.127 0.13 C 20.456 71.329 17.709 70.656 13.418 69.741 z M 21.513 79.018 c 3.97 -0.774 9.885 0.26 9.885 0.26 C 29.598 79.402 26.518 79.19 21.513 79.018 z M 38.562 74.599 c 1.829 4.152 3.06 6.718 3.603 8.334 c -0.017 -0.007 -0.034 -0.013 -0.052 -0.02 C 41.593 82.042 39.19 77.902 38.562 74.599 z M 30.87 68.593 c 0.467 4.354 0.858 7.236 0.953 9.099 c -0.058 -0.039 -0.116 -0.076 -0.174 -0.115 C 31.269 75.811 30.499 71.672 30.87 68.593 z M 33.185 86.523 c 2.435 -1.331 6.076 -2.091 7.84 -2.4 c 0.092 0.036 0.187 0.072 0.279 0.106 C 39.65 84.786 37.044 85.441 33.185 86.523 z M 78.487 79.018 c -5.006 0.173 -8.086 0.385 -9.886 0.26 C 68.602 79.277 74.517 78.243 78.487 79.018 z M 69.13 68.593 c 0.371 3.079 -0.398 7.218 -0.778 8.983 c -0.059 0.039 -0.117 0.076 -0.174 0.115 C 68.272 75.829 68.663 72.946 69.13 68.593 z M 61.438 74.599 c -0.628 3.304 -3.03 7.443 -3.551 8.314 c -0.018 0.007 -0.035 0.013 -0.052 0.02 C 58.378 81.316 59.608 78.751 61.438 74.599 z M 66.814 86.523 c -3.858 -1.082 -6.465 -1.737 -8.118 -2.294 c 0.092 -0.034 0.187 -0.07 0.278 -0.106 C 60.738 84.433 64.38 85.192 66.814 86.523 z M 95.112 46.442 c -3.209 3.048 -5.155 5.02 -6.455 6.046 c 0.005 -0.023 0.011 -0.047 0.018 -0.07 C 89.314 51.64 92.304 48.098 95.112 46.442 z M 94.218 33.122 c -2.202 3.925 -3.485 6.403 -4.429 7.752 c 0 -0.01 -0.001 -0.02 -0.001 -0.029 C 90.04 40.215 91.919 35.649 94.218 33.122 z M 89.736 21.659 c -0.975 4.142 -1.517 6.816 -2.022 8.412 c -0.019 -0.053 -0.035 -0.107 -0.054 -0.16 C 87.823 28.517 88.4 24.369 89.736 21.659 z M 83.33 12.628 c 0.098 4.335 0.247 7.038 0.132 8.646 c -0.011 -0.017 -0.021 -0.033 -0.032 -0.049 C 83.295 20.322 82.678 15.776 83.33 12.628 z M 71.986 11.004 c 2.594 1.01 5.55 3.393 6.74 4.405 l -0.104 0.099 C 77.209 14.647 75.139 13.152 71.986 11.004 z M 73.997 20.802 c 2.674 -0.289 6.236 0.402 7.849 0.765 c 0.038 0.057 0.074 0.115 0.112 0.171 C 80.308 21.627 77.782 21.255 73.997 20.802 z M 78.368 27.377 c 2.87 0.421 6.437 2.169 7.813 2.889 c 0.019 0.051 0.037 0.101 0.055 0.153 C 84.628 29.904 82.167 28.861 78.368 27.377 z M 81.712 35.47 c 2.507 1.138 5.288 3.601 6.524 4.765 c 0.006 0.071 0.009 0.143 0.013 0.214 C 86.851 39.489 84.815 37.843 81.712 35.47 z M 82.472 44.991 c 2.088 1.854 4.042 5.093 4.859 6.541 c -0.016 0.065 -0.031 0.131 -0.046 0.196 C 86.229 50.402 84.762 48.214 82.472 44.991 z M 80.633 53.545 c 1.555 2.631 2.449 6.789 2.706 8.117 c -0.019 0.032 -0.038 0.064 -0.058 0.099 C 82.656 60.205 81.913 57.586 80.633 53.545 z M 76.891 70.348 c -0.032 0.034 -0.066 0.068 -0.1 0.103 c -0.24 -1.735 -0.351 -4.544 -0.647 -8.873 C 77.047 64.545 76.957 68.83 76.891 70.348 z M 86.582 69.741 c -4.292 0.915 -7.037 1.588 -8.769 1.825 c 0.042 -0.043 0.085 -0.087 0.127 -0.13 C 79.377 70.956 83.477 69.689 86.582 69.741 z M 92.224 58.794 c -3.641 1.753 -6.005 2.975 -7.569 3.614 c 0.039 -0.071 0.077 -0.142 0.117 -0.213 C 86.166 61.334 89.475 59.414 92.224 58.794 z" stroke-linecap="round" />
</g>
<g transform="matrix(0.11113317651168923 0 0 0.11113317651168923 250.51491399721985 188.27250391488406)"  >
<g style=""   >
		<g transform="matrix(1 0 0 1 0 -2.2737368e-13)"  >
<path style="stroke: none; stroke-width: 1; stroke-dasharray: none; stroke-linecap: butt; stroke-dashoffset: 0; stroke-linejoin: miter; stroke-miterlimit: 4; fill: rgb(255,255,255); fill-rule: nonzero; opacity: 0.5;"  transform=" translate(-466.15, -553.9999999999998)" d="M 466.3 0 h 4.1 L 488 8.8 c 11.7 5.9 19.4 9.7 23.2 11.6 c 3.8 1.8 16.6 7.8 38.4 17.8 c 21.8 10 33.1 15.1 33.9 15.2 c 0.7 0.1 6.5 2.5 17.4 7.2 S 620.1 68.7 626 71 c 5.9 2.2 14.3 5.3 25.4 9.1 c 11.1 3.9 18.1 6.3 21 7.3 s 6.6 2.2 11 3.7 c 4.4 1.4 10 3.1 16.9 5.2 c 6.9 2 15.7 4.5 26.3 7.3 c 10.7 2.8 21 5.4 31 7.6 s 16.5 3.7 19.4 4.3 c 2.9 0.6 12.2 2.3 27.9 5.2 c 15.7 2.8 25.5 4.6 29.5 5.2 s 13.7 2.1 29.2 4.6 c 15.5 2.4 23.3 3.7 23.5 3.7 s 7.7 1.4 22.6 4.3 c 14.8 2.8 22.3 4.3 22.4 4.4 l 0.2 0.2 l -0.9 45.4 c -0.6 30.2 -2.2 69.3 -4.7 117.2 s -4.5 81.4 -6 100.5 s -3.1 35.4 -5 49 s -4.1 26.5 -6.6 38.7 s -5.2 24.5 -8.2 36.8 c -2.9 12.4 -5.5 23.2 -7.8 32.6 c -2.3 9.3 -5 19.4 -8.2 30.1 c -3.1 10.8 -5 17.3 -5.6 19.5 s -1.6 5.1 -2.8 8.5 c -1.3 3.5 -2.7 7.7 -4.4 12.8 c -1.7 5.1 -4.3 12.4 -7.8 21.9 c -3.6 9.5 -6.5 17.2 -8.8 22.8 c -2.3 5.7 -5.1 12.5 -8.5 20.4 c -3.3 7.9 -7.6 17.5 -12.9 28.6 c -5.2 11.2 -8.4 17.7 -9.4 19.5 s -4.9 8.5 -11.4 19.9 c -6.6 11.5 -10.6 18.3 -11.9 20.4 c -1.4 2.1 -4.6 7.5 -9.7 16.1 c -5.1 8.6 -8.5 14.1 -10 16.4 c -1.6 2.3 -4 6 -7.2 11 s -5.9 8.8 -7.8 11.6 c -2 2.7 -4.3 6 -6.9 9.7 c -2.6 3.8 -5.1 7.2 -7.5 10.4 s -4.3 5.8 -5.6 7.9 c -1.4 2.1 -3.3 4.9 -6 8.2 c -2.6 3.3 -5.1 6.7 -7.5 10 s -5 6.8 -7.8 10.4 c -2.8 3.6 -5.2 6.6 -7.2 9.1 s -6.2 7.4 -12.7 14.5 s -14.1 15.2 -22.9 24.4 c -8.8 9.1 -16.5 17 -23.2 23.4 c -6.7 6.5 -11.1 10.6 -13.3 12.3 s -7.3 6.1 -15.4 13.1 c -8 7 -13 11.3 -14.7 12.8 c -1.8 1.5 -6.2 5.3 -13.2 11.3 s -11.6 9.8 -13.8 11.6 c -2.2 1.7 -4.7 3.8 -7.5 6.1 c -2.8 2.3 -6.7 5.5 -11.8 9.6 c -5 4.1 -8.8 7.1 -11.4 9 s -5.1 3.7 -7.5 5.2 s -6.8 4.2 -13.2 7.9 c -6.4 3.8 -10.6 6.3 -12.5 7.6 c -2 1.3 -4.2 2.7 -6.7 4.1 s -5.1 3 -7.8 4.9 c -2.7 1.8 -4.7 3.1 -6 4 c -1.3 0.8 -4 2.2 -8.2 4.3 c -4.2 2 -9.2 4.4 -15.1 7 c -5.9 2.6 -9.9 4.4 -12.2 5.2 l -3.4 1.2 l -3.8 -0.9 c -2.5 -0.6 -5.2 -1.6 -8.2 -3 s -7.8 -3.9 -14.7 -7.3 c -6.9 -3.5 -10.9 -5.6 -11.9 -6.4 s -3.7 -2.6 -8 -5.3 c -4.3 -2.7 -7.5 -4.8 -9.7 -6.1 c -2.2 -1.3 -6.5 -3.9 -12.9 -7.6 c -6.4 -3.8 -10.8 -6.4 -13.2 -7.9 s -4.9 -3.2 -7.5 -5.2 c -2.6 -1.9 -5.6 -4.2 -8.9 -6.9 c -3.3 -2.6 -7.8 -6.2 -13.3 -10.8 c -5.5 -4.6 -10.3 -8.5 -14.4 -11.9 c -4.1 -3.3 -10 -8.4 -17.9 -15.2 c -7.8 -6.8 -12.9 -11.1 -15.1 -12.8 s -7 -5.8 -14.4 -12.2 c -7.4 -6.4 -11.6 -10 -12.4 -10.8 s -4.5 -4.4 -11.1 -10.8 c -6.6 -6.4 -11.2 -11 -13.8 -13.7 c -2.6 -2.7 -8.4 -8.8 -17.2 -18.3 c -8.9 -9.4 -14.2 -15.2 -16 -17.4 c -1.8 -2.1 -4.4 -5.3 -7.8 -9.4 c -3.4 -4.2 -6.2 -7.5 -8.2 -10 s -4 -5.2 -6 -7.9 s -4.1 -5.6 -6.3 -8.5 c -2.2 -2.9 -4.2 -5.6 -6 -7.9 c -1.8 -2.3 -3.3 -4.4 -4.5 -6.2 c -1.3 -1.8 -3 -4.2 -5.2 -7.2 c -2.2 -2.9 -4.1 -5.6 -5.6 -7.9 c -1.6 -2.3 -3.7 -5.4 -6.3 -9.1 c -2.6 -3.8 -4.6 -6.7 -6 -8.8 s -3.6 -5.5 -6.6 -10 c -3 -4.6 -5 -7.7 -6 -9.4 c -0.9 -1.7 -3.6 -6.1 -7.8 -13.1 c -4.3 -7 -7.1 -11.6 -8.5 -13.7 c -1.4 -2.1 -4.8 -8 -10.2 -17.5 c -5.4 -9.5 -9.5 -16.7 -12.2 -21.6 c -2.7 -4.9 -5.1 -9.4 -7.2 -13.7 s -5 -10.7 -8.8 -19.2 s -5.6 -12.9 -5.6 -13.1 c 0 -0.2 -1.9 -4.9 -5.6 -14 c -3.8 -9.1 -6.7 -16.3 -8.8 -21.6 s -5 -13.3 -8.8 -24.1 s -7.5 -22.2 -11.3 -34.4 s -7.9 -27 -12.5 -44.5 s -7.8 -30.4 -9.7 -39 c -1.9 -8.5 -4.5 -20.9 -7.8 -37.1 s -5.3 -26.9 -6 -32 c -0.6 -5.1 -2 -20.6 -4.1 -46.6 s -3.4 -45.6 -4.1 -58.8 c -0.6 -13.2 -1.4 -27.2 -2.2 -42 s -2 -39.1 -3.4 -72.8 C 0.7 202.7 0 178.9 0 164.8 v -21 l 2 -1.1 c 1.4 -0.7 5.1 -1.6 11.1 -2.6 c 6.1 -1 14.4 -2.3 25.1 -4 c 10.7 -1.6 26.9 -4.3 48.6 -7.9 c 21.7 -3.7 37.3 -6.3 46.7 -7.9 c 9.4 -1.6 21.8 -4.2 37.3 -7.6 c 15.5 -3.5 28.9 -6.7 40.1 -9.7 c 11.3 -3 21 -5.9 29.2 -8.5 s 14.5 -4.7 19.1 -6.1 c 4.6 -1.4 9 -2.8 13.2 -4.3 c 4.2 -1.4 12.5 -4.5 25.1 -9.1 c 12.5 -4.7 24.3 -9.4 35.3 -14.2 s 16.8 -7.2 17.6 -7.3 c 0.7 -0.1 6 -2.4 15.8 -6.9 s 18.7 -8.5 26.7 -12.2 c 7.9 -3.7 15.8 -7.3 23.5 -11 s 17.4 -8.4 28.9 -14.3 L 462.2 0 H 466.3 L 466.3 0 L 466.3 0 z" stroke-linecap="round" />
</g>
		<g transform="matrix(1 0 0 1 1.6000000000001364 2.949999999999818)"  >
<path style="stroke: none; stroke-width: 1; stroke-dasharray: none; stroke-linecap: butt; stroke-dashoffset: 0; stroke-linejoin: miter; stroke-miterlimit: 4; fill: rgb(255,255,255); fill-rule: nonzero; opacity: 0.81;"  transform=" translate(-467.7500000000001, -556.9499999999998)" d="M 468 71.8 h 3.6 l 15.4 7.7 c 10.3 5.2 17 8.5 20.3 10.1 s 14.5 6.8 33.7 15.6 c 19.1 8.8 29 13.3 29.7 13.3 c 0.6 0.1 5.7 2.2 15.3 6.3 c 9.5 4.1 16.9 7.1 22 9.1 s 12.5 4.6 22.3 8 c 9.7 3.4 15.8 5.5 18.4 6.4 c 2.6 0.9 5.8 2 9.6 3.2 s 8.8 2.8 14.8 4.5 c 6 1.8 13.7 3.9 23.1 6.4 c 9.3 2.5 18.4 4.7 27.2 6.7 s 14.5 3.2 17 3.7 c 2.6 0.5 10.7 2 24.5 4.5 c 13.7 2.5 22.4 4 25.8 4.5 c 3.5 0.5 12 1.9 25.6 4 s 20.4 3.2 20.6 3.2 s 6.8 1.2 19.8 3.7 c 13 2.5 19.6 3.8 19.6 3.9 l 0.1 0.1 l -0.8 39.8 c -0.5 26.5 -1.9 60.7 -4.1 102.7 s -3.9 71.3 -5.2 88 c -1.3 16.7 -2.7 31 -4.4 43 c -1.6 11.9 -3.6 23.2 -5.8 33.9 c -2.2 10.7 -4.6 21.4 -7.1 32.3 c -2.6 10.9 -4.9 20.4 -6.9 28.5 c -2 8.2 -4.4 17 -7.1 26.4 c -2.7 9.4 -4.4 15.1 -4.9 17.1 s -1.4 4.4 -2.5 7.5 c -1.1 3 -2.4 6.8 -3.8 11.2 c -1.5 4.4 -3.8 10.9 -6.9 19.2 c -3.1 8.4 -5.7 15 -7.7 20 s -4.5 10.9 -7.4 17.9 c -2.9 6.9 -6.7 15.3 -11.3 25.1 s -7.3 15.5 -8.2 17.1 s -4.3 7.4 -10 17.5 c -5.8 10 -9.3 16 -10.4 17.9 c -1.2 1.9 -4 6.6 -8.5 14.1 c -4.5 7.6 -7.4 12.4 -8.8 14.4 c -1.4 2 -3.5 5.2 -6.3 9.6 c -2.8 4.4 -5.1 7.7 -6.9 10.1 c -1.7 2.4 -3.8 5.2 -6 8.5 c -2.3 3.3 -4.5 6.3 -6.6 9.1 s -3.8 5.1 -4.9 6.9 c -1.2 1.9 -2.9 4.3 -5.2 7.2 s -4.5 5.9 -6.6 8.8 c -2.1 2.9 -4.4 6 -6.9 9.1 s -4.6 5.8 -6.3 8 s -5.5 6.4 -11.1 12.7 c -5.7 6.2 -12.4 13.3 -20.1 21.3 c -7.7 8 -14.5 14.9 -20.3 20.5 c -5.9 5.7 -9.8 9.3 -11.7 10.8 s -6.4 5.3 -13.5 11.5 c -7.1 6.1 -11.4 9.9 -12.9 11.2 c -1.6 1.3 -5.4 4.6 -11.5 9.9 c -6.1 5.2 -10.2 8.6 -12.1 10.1 c -1.9 1.5 -4.1 3.3 -6.6 5.3 s -5.9 4.8 -10.3 8.4 c -4.4 3.6 -7.7 6.2 -10 7.9 s -4.5 3.2 -6.6 4.5 s -6 3.6 -11.5 6.9 c -5.6 3.3 -9.3 5.5 -11 6.7 s -3.7 2.4 -5.9 3.6 c -2.2 1.2 -4.5 2.7 -6.9 4.3 s -4.1 2.8 -5.2 3.5 c -1.1 0.7 -3.5 2 -7.1 3.7 c -3.7 1.8 -8.1 3.8 -13.2 6.1 c -5.1 2.3 -8.7 3.8 -10.7 4.5 l -3 1.1 l -3.3 -0.8 c -2.2 -0.5 -4.5 -1.4 -7.1 -2.6 c -226.2 -108.8 -368.2 -364 -387.8 -608 c -1.8 -22.8 -3 -39.9 -3.6 -51.5 c -0.5 -11.6 -1.2 -23.8 -1.9 -36.8 s -1.7 -34.2 -3 -63.8 c -1.3 -29.5 -1.9 -50.4 -1.9 -62.7 v -18.4 l 1.8 -0.9 c 1.2 -0.6 4.4 -1.4 9.8 -2.3 c 5.3 -0.9 12.6 -2 22 -3.5 c 9.3 -1.4 23.5 -3.7 42.6 -6.9 s 32.7 -5.5 40.9 -6.9 c 8.2 -1.4 19.1 -3.6 32.7 -6.7 c 13.6 -3 25.3 -5.9 35.2 -8.5 c 9.9 -2.7 18.4 -5.2 25.6 -7.5 c 7.1 -2.3 12.7 -4.1 16.8 -5.3 c 4 -1.2 7.9 -2.5 11.5 -3.7 c 3.7 -1.2 11 -3.9 22 -8 s 21.3 -8.2 30.9 -12.4 c 9.6 -4.2 14.7 -6.3 15.4 -6.4 c 0.6 -0.1 5.3 -2.1 13.9 -6 c 8.6 -3.9 16.4 -7.5 23.4 -10.7 s 13.8 -6.4 20.6 -9.6 s 15.2 -7.4 25.3 -12.5 l 15.1 -7.7 C 464.4 71.8 468 71.8 468 71.8 z" stroke-linecap="round" />
</g>
</g>
</g>
<g transform="matrix(1,0,0,1,254.19838135793546,332.4592379722953)" style=""  ><path fill="#ffffff" opacity="1" d="M-192.49 13.45L-192.49 13.02L-192.28 13.02Q-191.94 13.02-191.68 12.78Q-191.42 12.55-191.23 12.20Q-191.04 11.86-190.93 11.48Q-190.82 11.09-190.82 10.75L-190.82 10.75L-190.82-12.15Q-190.82-12.45-190.93-12.83Q-191.04-13.22-191.23-13.56Q-191.42-13.90-191.68-14.14Q-191.94-14.37-192.28-14.37L-192.28-14.37L-192.49-14.37L-192.49-14.80L-186.33-14.80L-186.33-14.37L-186.54-14.37Q-186.89-14.37-187.14-14.14Q-187.40-13.90-187.57-13.56Q-187.74-13.22-187.85-12.83Q-187.96-12.45-187.96-12.15L-187.96-12.15L-187.96 11.86L-178.58 11.86Q-177.77 11.86-177.17 11.48Q-176.57 11.09-176.16 10.51Q-175.76 9.94-175.57 9.27Q-175.37 8.61-175.37 8.05L-175.37 8.05L-174.94 8.05L-174.94 13.45L-192.49 13.45Z"/><path fill="#ffffff" opacity="1" d="M-155.09 13.45L-155.09 13.02L-154.87 13.02Q-153.84 13.02-153.84 12.08L-153.84 12.08Q-153.84 11.73-153.97 11.35L-153.97 11.35L-157.82 0.95L-165.31 0.95L-169.04 11.18Q-169.17 11.52-169.17 11.82L-169.17 11.82Q-169.17 12.38-168.87 12.70Q-168.57 13.02-168.23 13.02L-168.23 13.02L-168.01 13.02L-168.01 13.45L-172.76 13.45L-172.76 13.02L-172.55 13.02Q-171.99 13.02-171.46 12.35Q-170.92 11.69-170.58 10.79L-170.58 10.79L-160.78-15.32L-151.19 10.53Q-150.89 11.39-150.36 12.20Q-149.82 13.02-148.97 13.02L-148.97 13.02L-148.75 13.02L-148.75 13.45L-155.09 13.45ZM-161.59-9.45L-164.89-0.51L-158.30-0.51L-161.59-9.45Z"/><path fill="#ffffff" opacity="1" d="M-140.53 13.02L-140.53 13.02L-140.32 13.02L-140.32 13.45L-145.07 13.45L-145.07 13.02L-144.86 13.02Q-144.56 13.02-144.28 12.76Q-144.00 12.50-143.83 12.16Q-143.66 11.82-143.55 11.41Q-143.44 11.01-143.44 10.66L-143.44 10.66L-143.44-12.15Q-143.44-12.45-143.51-12.83Q-143.57-13.22-143.74-13.56Q-143.91-13.90-144.21-14.14Q-144.51-14.37-144.94-14.37L-144.94-14.37L-145.16-14.37L-145.16-14.80L-140.83-14.80L-125.30 9.68L-125.30-12.15Q-125.30-12.45-125.40-12.83Q-125.51-13.22-125.70-13.56Q-125.90-13.90-126.15-14.14Q-126.41-14.37-126.75-14.37L-126.75-14.37L-126.97-14.37L-126.97-14.80L-122.17-14.80L-122.17-14.37L-122.39-14.37Q-122.73-14.37-122.99-14.14Q-123.24-13.90-123.44-13.56Q-123.63-13.22-123.71-12.83Q-123.80-12.45-123.80-12.15L-123.80-12.15L-123.80 13.45L-126.45 13.45L-141.95-11.12L-141.95 10.66Q-141.95 11.01-141.86 11.41Q-141.77 11.82-141.58 12.16Q-141.39 12.50-141.13 12.76Q-140.88 13.02-140.53 13.02Z"/><path fill="#ffffff" opacity="1" d="M-98.59-1.02L-98.59-1.45L-92.47-1.45L-92.47-1.02L-92.68-1.02Q-93.03-1.02-93.28-0.79Q-93.54-0.55-93.71-0.21Q-93.88 0.13-93.99 0.52Q-94.10 0.90-94.10 1.20L-94.10 1.20L-94.10 12.67Q-94.87 12.97-95.85 13.19Q-96.83 13.40-97.90 13.55Q-98.97 13.70-100.09 13.79Q-101.20 13.87-102.14 13.87L-102.14 13.87Q-105.99 13.87-108.86 12.59Q-111.73 11.31-113.61 9.23Q-115.50 7.15-116.42 4.54Q-117.34 1.93-117.34-0.72L-117.34-0.72Q-117.34-3.38-116.42-5.99Q-115.50-8.60-113.59-10.65Q-111.69-12.71-108.80-13.97Q-105.91-15.23-101.93-15.23L-101.93-15.23Q-100.43-15.23-99.15-14.97Q-97.86-14.72-96.88-14.50L-96.88-14.50Q-96.32-14.37-95.91-14.27Q-95.51-14.16-95.21-14.16L-95.21-14.16L-94.82-14.16L-94.82-9.62L-95.25-9.62Q-95.51-10.95-96.26-11.76Q-97.01-12.58-97.99-13.01Q-98.97-13.43-100.07-13.58Q-101.16-13.73-102.10-13.73L-102.10-13.73Q-105.31-13.73-107.66-12.60Q-110.02-11.46-111.52-9.67Q-113.01-7.87-113.74-5.62Q-114.47-3.38-114.47-1.15L-114.47-1.15Q-114.47 1.33-113.53 3.75Q-112.59 6.17-110.87 8.07Q-109.16 9.98-106.74 11.16Q-104.32 12.33-101.37 12.33L-101.37 12.33Q-100.56 12.33-99.36 12.14Q-98.16 11.95-96.96 11.26L-96.96 11.26L-96.96 1.20Q-96.96 0.90-97.05 0.52Q-97.13 0.13-97.33-0.21Q-97.52-0.55-97.78-0.79Q-98.03-1.02-98.38-1.02L-98.38-1.02L-98.59-1.02Z"/><path fill="#ffffff" opacity="1" d="M-87.72-14.37L-87.72-14.80L-81.64-14.80L-81.64-14.37L-81.85-14.37Q-82.20-14.37-82.45-14.14Q-82.71-13.90-82.90-13.56Q-83.10-13.22-83.18-12.83Q-83.27-12.45-83.27-12.15L-83.27-12.15L-83.27 4.76Q-83.27 6.43-82.92 7.84Q-82.58 9.25-81.77 10.28Q-80.96 11.31-79.63 11.88Q-78.30 12.46-76.38 12.46L-76.38 12.46Q-74.24 12.46-72.95 11.78Q-71.67 11.09-70.98 10.00Q-70.30 8.91-70.08 7.54Q-69.87 6.17-69.87 4.84L-69.87 4.84L-69.87-12.15Q-69.87-12.45-69.96-12.83Q-70.04-13.22-70.23-13.56Q-70.43-13.90-70.68-14.14Q-70.94-14.37-71.24-14.37L-71.24-14.37L-71.45-14.37L-71.45-14.80L-66.79-14.80L-66.79-14.37L-67.00-14.37Q-67.35-14.37-67.58-14.14Q-67.82-13.90-68.01-13.56Q-68.20-13.22-68.29-12.83Q-68.37-12.45-68.37-12.15L-68.37-12.15L-68.37 4.71Q-68.37 7.50-69.06 9.27Q-69.74 11.05-70.94 12.08Q-72.14 13.10-73.74 13.49Q-75.35 13.87-77.15 13.87L-77.15 13.87Q-79.07 13.87-80.72 13.47Q-82.37 13.06-83.57 12.03Q-84.77 11.01-85.45 9.23Q-86.13 7.45-86.13 4.76L-86.13 4.76L-86.13-12.15Q-86.13-12.45-86.22-12.83Q-86.31-13.22-86.50-13.56Q-86.69-13.90-86.95-14.14Q-87.20-14.37-87.50-14.37L-87.50-14.37L-87.72-14.37Z"/><path fill="#ffffff" opacity="1" d="M-45.22 13.45L-45.22 13.02L-45.00 13.02Q-43.98 13.02-43.98 12.08L-43.98 12.08Q-43.98 11.73-44.11 11.35L-44.11 11.35L-47.96 0.95L-55.45 0.95L-59.17 11.18Q-59.30 11.52-59.30 11.82L-59.30 11.82Q-59.30 12.38-59.00 12.70Q-58.70 13.02-58.36 13.02L-58.36 13.02L-58.14 13.02L-58.14 13.45L-62.89 13.45L-62.89 13.02L-62.68 13.02Q-62.12 13.02-61.59 12.35Q-61.05 11.69-60.71 10.79L-60.71 10.79L-50.91-15.32L-41.32 10.53Q-41.02 11.39-40.49 12.20Q-39.95 13.02-39.10 13.02L-39.10 13.02L-38.88 13.02L-38.88 13.45L-45.22 13.45ZM-51.72-9.45L-55.02-0.51L-48.43-0.51L-51.72-9.45Z"/><path fill="#ffffff" opacity="1" d="M-16.76-1.02L-16.76-1.45L-10.64-1.45L-10.64-1.02L-10.85-1.02Q-11.19-1.02-11.45-0.79Q-11.71-0.55-11.88-0.21Q-12.05 0.13-12.16 0.52Q-12.26 0.90-12.26 1.20L-12.26 1.20L-12.26 12.67Q-13.03 12.97-14.02 13.19Q-15.00 13.40-16.07 13.55Q-17.14 13.70-18.25 13.79Q-19.37 13.87-20.31 13.87L-20.31 13.87Q-24.16 13.87-27.03 12.59Q-29.90 11.31-31.78 9.23Q-33.66 7.15-34.58 4.54Q-35.50 1.93-35.50-0.72L-35.50-0.72Q-35.50-3.38-34.58-5.99Q-33.66-8.60-31.76-10.65Q-29.85-12.71-26.96-13.97Q-24.08-15.23-20.09-15.23L-20.09-15.23Q-18.60-15.23-17.31-14.97Q-16.03-14.72-15.04-14.50L-15.04-14.50Q-14.49-14.37-14.08-14.27Q-13.67-14.16-13.38-14.16L-13.38-14.16L-12.99-14.16L-12.99-9.62L-13.42-9.62Q-13.67-10.95-14.42-11.76Q-15.17-12.58-16.16-13.01Q-17.14-13.43-18.23-13.58Q-19.32-13.73-20.27-13.73L-20.27-13.73Q-23.48-13.73-25.83-12.60Q-28.18-11.46-29.68-9.67Q-31.18-7.87-31.91-5.62Q-32.64-3.38-32.64-1.15L-32.64-1.15Q-32.64 1.33-31.69 3.75Q-30.75 6.17-29.04 8.07Q-27.33 9.98-24.91 11.16Q-22.49 12.33-19.54 12.33L-19.54 12.33Q-18.73 12.33-17.53 12.14Q-16.33 11.95-15.13 11.26L-15.13 11.26L-15.13 1.20Q-15.13 0.90-15.22 0.52Q-15.30 0.13-15.49-0.21Q-15.69-0.55-15.94-0.79Q-16.20-1.02-16.54-1.02L-16.54-1.02L-16.76-1.02Z"/><path fill="#ffffff" opacity="1" d="M-5.89 13.45L-5.89 13.02L-5.67 13.02Q-5.33 13.02-5.07 12.78Q-4.82 12.55-4.62 12.20Q-4.43 11.86-4.32 11.48Q-4.22 11.09-4.22 10.75L-4.22 10.75L-4.22-12.15Q-4.22-12.45-4.32-12.83Q-4.43-13.22-4.62-13.56Q-4.82-13.90-5.07-14.14Q-5.33-14.37-5.67-14.37L-5.67-14.37L-5.89-14.37L-5.89-14.80L10.59-14.80L10.59-10.82L10.16-10.82Q10.08-11.81 9.39-12.56Q8.71-13.30 7.25-13.30L7.25-13.30L-1.35-13.30L-1.35-2.48L5.76-2.48Q6.74-2.48 7.40-3.08Q8.07-3.67 8.07-4.49L8.07-4.49L8.50-4.49L8.50 0.86L8.07 0.86Q8.07 0.09 7.43-0.46Q6.78-1.02 5.76-1.02L5.76-1.02L-1.35-1.02L-1.35 11.95L8.02 11.95Q8.84 11.95 9.44 11.56Q10.04 11.18 10.44 10.64Q10.85 10.11 11.04 9.49Q11.23 8.87 11.23 8.44L11.23 8.44L11.66 8.44L11.66 13.45L-5.89 13.45Z"/><path fill="#ffffff" opacity="1" d=""/><path fill="#ffffff" opacity="1" d="M28.27-14.37L28.27-14.80L34.35-14.80Q39.10-14.80 41.56-12.98Q44.02-11.16 44.02-7.83L44.02-7.83Q44.02-6.03 43.16-4.62Q42.31-3.20 40.92-2.24Q39.53-1.28 37.79-0.76Q36.06-0.25 34.35-0.25L34.35-0.25L32.72-0.25L32.72 10.66Q32.72 11.01 32.81 11.41Q32.89 11.82 33.08 12.16Q33.28 12.50 33.51 12.76Q33.75 13.02 34.09 13.02L34.09 13.02L34.30 13.02L34.30 13.45L28.27 13.45L28.27 13.02L28.48 13.02Q28.78 13.02 29.04 12.76Q29.30 12.50 29.47 12.16Q29.64 11.82 29.72 11.41Q29.81 11.01 29.81 10.66L29.81 10.66L29.81-12.15Q29.81-12.75 29.47-13.52Q29.13-14.29 28.48-14.37L28.48-14.37L28.27-14.37ZM33.32-13.30L32.72-13.30L32.72-1.75L34.00-1.75Q35.72-1.75 37.06-2.22Q38.41-2.69 39.31-3.46Q40.21-4.23 40.68-5.22Q41.15-6.20 41.15-7.23L41.15-7.23Q41.15-8.47 40.75-9.56Q40.34-10.65 39.42-11.49Q38.50-12.32 37.00-12.81Q35.50-13.30 33.32-13.30L33.32-13.30Z"/><path fill="#ffffff" opacity="1" d="M48.81-14.37L48.81-14.80L54.89-14.80L54.89-14.37L54.68-14.37Q54.33-14.37 54.08-14.14Q53.82-13.90 53.63-13.56Q53.44-13.22 53.35-12.83Q53.26-12.45 53.26-12.15L53.26-12.15L53.26 4.76Q53.26 6.43 53.61 7.84Q53.95 9.25 54.76 10.28Q55.58 11.31 56.90 11.88Q58.23 12.46 60.16 12.46L60.16 12.46Q62.30 12.46 63.58 11.78Q64.86 11.09 65.55 10.00Q66.23 8.91 66.45 7.54Q66.66 6.17 66.66 4.84L66.66 4.84L66.66-12.15Q66.66-12.45 66.58-12.83Q66.49-13.22 66.30-13.56Q66.10-13.90 65.85-14.14Q65.59-14.37 65.29-14.37L65.29-14.37L65.08-14.37L65.08-14.80L69.74-14.80L69.74-14.37L69.53-14.37Q69.19-14.37 68.95-14.14Q68.72-13.90 68.52-13.56Q68.33-13.22 68.24-12.83Q68.16-12.45 68.16-12.15L68.16-12.15L68.16 4.71Q68.16 7.50 67.47 9.27Q66.79 11.05 65.59 12.08Q64.39 13.10 62.79 13.49Q61.18 13.87 59.38 13.87L59.38 13.87Q57.46 13.87 55.81 13.47Q54.16 13.06 52.96 12.03Q51.77 11.01 51.08 9.23Q50.40 7.45 50.40 4.76L50.40 4.76L50.40-12.15Q50.40-12.45 50.31-12.83Q50.23-13.22 50.03-13.56Q49.84-13.90 49.58-14.14Q49.33-14.37 49.03-14.37L49.03-14.37L48.81-14.37Z"/><path fill="#ffffff" opacity="1" d="M80.78 13.02L80.78 13.02L81.00 13.02L81.00 13.45L74.96 13.45L74.96 13.02L75.18 13.02Q75.48 13.02 75.73 12.76Q75.99 12.50 76.18 12.16Q76.38 11.82 76.46 11.41Q76.55 11.01 76.55 10.66L76.55 10.66L76.55-12.15Q76.55-12.45 76.46-12.83Q76.38-13.22 76.18-13.56Q75.99-13.90 75.73-14.14Q75.48-14.37 75.18-14.37L75.18-14.37L74.96-14.37L74.96-14.80L82.41-14.80Q86.69-14.80 89.02-13.13Q91.36-11.46 91.36-8.21L91.36-8.21Q91.36-6.59 90.82-5.37Q90.29-4.15 89.39-3.27Q88.49-2.39 87.27-1.86Q86.05-1.32 84.68-1.06L84.68-1.06L87.76 3.64Q88.87 5.36 90.03 7.00Q91.19 8.65 92.30 10.41L92.30 10.41Q92.60 10.83 92.96 11.31Q93.33 11.78 93.73 12.16Q94.14 12.55 94.59 12.78Q95.04 13.02 95.51 13.02L95.51 13.02L95.51 13.45L93.67 13.45Q91.96 13.45 90.86 12.61Q89.77 11.78 89.05 10.66L89.05 10.66Q87.12 7.84 85.21 4.93Q83.31 2.02 81.43-0.81L81.43-0.81Q80.96-0.85 80.42-0.91Q79.89-0.98 79.42-1.06L79.42-1.06L79.42 10.66Q79.42 11.01 79.50 11.41Q79.59 11.82 79.78 12.16Q79.97 12.50 80.21 12.76Q80.44 13.02 80.78 13.02ZM80.06-13.35L79.42-13.35L79.42-2.48L79.63-2.48Q79.97-2.43 80.72-2.41Q81.47-2.39 82.58-2.39L82.58-2.39Q83.48-2.39 84.49-2.67Q85.49-2.95 86.37-3.61Q87.25-4.27 87.83-5.34Q88.40-6.41 88.40-8.04L88.40-8.04Q88.40-9.67 87.78-10.69Q87.16-11.72 86.07-12.32Q84.98-12.92 83.44-13.13Q81.90-13.35 80.06-13.35L80.06-13.35Z"/><path fill="#ffffff" opacity="1" d="M99.19-14.37L99.19-14.80L105.27-14.80Q110.02-14.80 112.48-12.98Q114.94-11.16 114.94-7.83L114.94-7.83Q114.94-6.03 114.08-4.62Q113.23-3.20 111.84-2.24Q110.45-1.28 108.71-0.76Q106.98-0.25 105.27-0.25L105.27-0.25L103.64-0.25L103.64 10.66Q103.64 11.01 103.73 11.41Q103.81 11.82 104.00 12.16Q104.20 12.50 104.43 12.76Q104.67 13.02 105.01 13.02L105.01 13.02L105.22 13.02L105.22 13.45L99.19 13.45L99.19 13.02L99.40 13.02Q99.70 13.02 99.96 12.76Q100.22 12.50 100.39 12.16Q100.56 11.82 100.64 11.41Q100.73 11.01 100.73 10.66L100.73 10.66L100.73-12.15Q100.73-12.75 100.39-13.52Q100.04-14.29 99.40-14.37L99.40-14.37L99.19-14.37ZM104.24-13.30L103.64-13.30L103.64-1.75L104.92-1.75Q106.64-1.75 107.98-2.22Q109.33-2.69 110.23-3.46Q111.13-4.23 111.60-5.22Q112.07-6.20 112.07-7.23L112.07-7.23Q112.07-8.47 111.67-9.56Q111.26-10.65 110.34-11.49Q109.42-12.32 107.92-12.81Q106.42-13.30 104.24-13.30L104.24-13.30Z"/><path fill="#ffffff" opacity="1" d="M134.16-15.23L134.16-15.23Q137.49-15.23 140.15-14.05Q142.80-12.88 144.66-10.89Q146.53-8.90 147.53-6.26Q148.54-3.63 148.54-0.76L148.54-0.76Q148.54 2.45 147.36 5.14Q146.18 7.84 144.13 9.76Q142.07 11.69 139.36 12.78Q136.64 13.87 133.56 13.87L133.56 13.87Q130.26 13.87 127.63 12.67Q125.00 11.48 123.18 9.51Q121.36 7.54 120.37 4.97Q119.39 2.40 119.39-0.38L119.39-0.38Q119.39-3.12 120.37-5.79Q121.36-8.47 123.26-10.57Q125.17-12.66 127.91-13.95Q130.65-15.23 134.16-15.23ZM134.11 12.38L134.11 12.38Q136.98 12.25 139.14 11.07Q141.30 9.89 142.76 8.07Q144.21 6.25 144.92 4.07Q145.63 1.89 145.63-0.25L145.63-0.25Q145.63-2.60 144.77-5.00Q143.91-7.40 142.33-9.35Q140.75-11.29 138.54-12.51Q136.34-13.73 133.60-13.73L133.60-13.73Q130.95-13.73 128.85-12.56Q126.75-11.38 125.28-9.54Q123.80-7.70 123.03-5.43Q122.26-3.16 122.26-0.98L122.26-0.98Q122.26 1.38 123.16 3.75Q124.06 6.13 125.64 8.05Q127.22 9.98 129.38 11.18Q131.55 12.38 134.11 12.38Z"/><path fill="#ffffff" opacity="1" d="M170.79 5.87L170.79 5.87Q170.79 8.01 169.94 9.53Q169.08 11.05 167.73 11.99Q166.38 12.93 164.69 13.36Q163.00 13.79 161.33 13.79L161.33 13.79Q159.62 13.79 158.38 13.45Q157.14 13.10 156.11 12.80L156.11 12.80Q155.43 12.59 154.87 12.44Q154.32 12.29 153.76 12.29L153.76 12.29L153.76 7.41L154.19 7.41Q154.19 9.04 155.02 10.00Q155.86 10.96 156.97 11.48Q158.08 11.99 159.19 12.14Q160.31 12.29 160.82 12.29L160.82 12.29Q162.66 12.29 163.99 11.75Q165.31 11.22 166.17 10.34Q167.03 9.46 167.43 8.39Q167.84 7.32 167.84 6.21L167.84 6.21Q167.84 4.80 167.24 3.84Q166.64 2.87 165.68 2.15Q164.72 1.42 163.47 0.90Q162.23 0.39 160.95-0.12L160.95-0.12Q159.49-0.68 158.08-1.28Q156.67-1.88 155.56-2.75Q154.44-3.63 153.76-4.85Q153.07-6.07 153.07-7.87L153.07-7.87Q153.07-9.75 153.80-11.14Q154.53-12.53 155.75-13.43Q156.97-14.33 158.53-14.78Q160.09-15.23 161.72-15.23L161.72-15.23Q162.83-15.23 163.82-15.08Q164.80-14.93 165.70-14.72L165.70-14.72Q166.43-14.55 167.11-14.44Q167.80-14.33 168.44-14.33L168.44-14.33L168.44-9.92L168.01-9.92Q167.93-12.15 166.26-12.94Q164.59-13.73 161.63-13.73L161.63-13.73Q159.92-13.73 158.83-13.16Q157.74-12.58 157.10-11.74Q156.46-10.91 156.22-9.95Q155.98-8.98 155.98-8.25L155.98-8.25Q155.98-7.06 156.52-6.20Q157.05-5.34 157.95-4.70Q158.85-4.06 160.03-3.55Q161.21-3.03 162.49-2.56L162.49-2.56Q163.95-2.01 165.44-1.36Q166.94-0.72 168.12 0.22Q169.30 1.16 170.04 2.53Q170.79 3.90 170.79 5.87Z"/><path fill="#ffffff" opacity="1" d="M175.59 13.45L175.59 13.02L175.80 13.02Q176.14 13.02 176.40 12.78Q176.66 12.55 176.85 12.20Q177.04 11.86 177.15 11.48Q177.26 11.09 177.26 10.75L177.26 10.75L177.26-12.15Q177.26-12.45 177.15-12.83Q177.04-13.22 176.85-13.56Q176.66-13.90 176.40-14.14Q176.14-14.37 175.80-14.37L175.80-14.37L175.59-14.37L175.59-14.80L192.06-14.80L192.06-10.82L191.64-10.82Q191.55-11.81 190.87-12.56Q190.18-13.30 188.73-13.30L188.73-13.30L180.12-13.30L180.12-2.48L187.23-2.48Q188.21-2.48 188.88-3.08Q189.54-3.67 189.54-4.49L189.54-4.49L189.97-4.49L189.97 0.86L189.54 0.86Q189.54 0.09 188.90-0.46Q188.26-1.02 187.23-1.02L187.23-1.02L180.12-1.02L180.12 11.95L189.50 11.95Q190.31 11.95 190.91 11.56Q191.51 11.18 191.92 10.64Q192.32 10.11 192.51 9.49Q192.71 8.87 192.71 8.44L192.71 8.44L193.13 8.44L193.13 13.45L175.59 13.45Z"/></g><g transform="matrix(1,0,0,1,249.99999999999997,381.7661910961478)" style=""  ><path fill="#ffffff" opacity="1" d="M-153.06-5.05L-153.06-5.05Q-154.23-5.05-155.09-4.64Q-155.95-4.22-156.52-3.54Q-157.09-2.87-157.37-2.04Q-157.64-1.20-157.64-0.38L-157.64-0.38Q-157.64 0.56-157.28 1.45Q-156.92 2.34-156.28 3.03Q-155.64 3.72-154.78 4.13Q-153.93 4.55-152.94 4.55L-152.94 4.55Q-152.65 4.55-152.26 4.49Q-151.88 4.43-151.50 4.24Q-151.12 4.06-150.80 3.73Q-150.47 3.40-150.30 2.86L-150.30 2.86L-150.14 2.86L-150.14 4.62Q-150.38 4.62-150.64 4.68Q-150.90 4.74-151.21 4.82L-151.21 4.82Q-151.62 4.93-152.12 5.03Q-152.62 5.12-153.17 5.12L-153.17 5.12Q-154.55 5.12-155.59 4.65Q-156.63 4.17-157.33 3.42Q-158.02 2.66-158.37 1.70Q-158.72 0.74-158.72-0.23L-158.72-0.23Q-158.72-1.21-158.37-2.18Q-158.02-3.14-157.31-3.91Q-156.60-4.67-155.53-5.15Q-154.45-5.62-153.00-5.62L-153.00-5.62Q-152.48-5.62-152.06-5.53Q-151.64-5.43-151.31-5.34L-151.31-5.34Q-151.07-5.26-150.87-5.22Q-150.68-5.18-150.49-5.18L-150.49-5.18L-150.49-3.43L-150.65-3.43Q-150.74-3.92-150.99-4.24Q-151.25-4.56-151.59-4.74Q-151.92-4.91-152.31-4.98Q-152.70-5.05-153.06-5.05Z"/><path fill="#ffffff" opacity="1" d="M-142.59 4.81L-142.59 4.81L-142.51 4.81L-142.51 4.96L-144.74 4.96L-144.74 4.81L-144.66 4.81Q-144.55 4.81-144.45 4.71Q-144.36 4.62-144.29 4.49Q-144.21 4.36-144.18 4.21Q-144.15 4.06-144.15 3.94L-144.15 3.94L-144.15-4.48Q-144.15-4.60-144.18-4.74Q-144.21-4.88-144.29-5.01Q-144.36-5.13-144.45-5.22Q-144.55-5.31-144.66-5.31L-144.66-5.31L-144.74-5.31L-144.74-5.46L-141.99-5.46Q-140.41-5.46-139.55-4.85Q-138.68-4.23-138.68-3.03L-138.68-3.03Q-138.68-2.43-138.88-1.98Q-139.08-1.53-139.41-1.21Q-139.74-0.88-140.19-0.69Q-140.64-0.49-141.15-0.39L-141.15-0.39L-140.01 1.35Q-139.60 1.98-139.17 2.59Q-138.75 3.19-138.34 3.84L-138.34 3.84Q-138.23 4.00-138.09 4.17Q-137.96 4.35-137.81 4.49Q-137.66 4.63-137.49 4.72Q-137.33 4.81-137.15 4.81L-137.15 4.81L-137.15 4.96L-137.83 4.96Q-138.46 4.96-138.87 4.66Q-139.27 4.35-139.54 3.94L-139.54 3.94Q-140.25 2.89-140.95 1.82Q-141.65 0.74-142.35-0.30L-142.35-0.30Q-142.52-0.31-142.72-0.34Q-142.92-0.36-143.09-0.39L-143.09-0.39L-143.09 3.94Q-143.09 4.06-143.06 4.21Q-143.03 4.36-142.96 4.49Q-142.89 4.62-142.80 4.71Q-142.71 4.81-142.59 4.81ZM-142.86-4.93L-143.09-4.93L-143.09-0.91L-143.01-0.91Q-142.89-0.90-142.61-0.89Q-142.33-0.88-141.92-0.88L-141.92-0.88Q-141.59-0.88-141.22-0.99Q-140.85-1.09-140.53-1.33Q-140.20-1.58-139.99-1.97Q-139.77-2.37-139.77-2.97L-139.77-2.97Q-139.77-3.57-140.00-3.95Q-140.23-4.33-140.64-4.55Q-141.04-4.77-141.61-4.85Q-142.18-4.93-142.86-4.93L-142.86-4.93Z"/><path fill="#ffffff" opacity="1" d="M-132.16 4.96L-132.16 4.81L-132.08 4.81Q-131.95 4.81-131.86 4.72Q-131.76 4.63-131.69 4.51Q-131.62 4.38-131.58 4.24Q-131.54 4.09-131.54 3.97L-131.54 3.97L-131.54-4.48Q-131.54-4.60-131.58-4.74Q-131.62-4.88-131.69-5.01Q-131.76-5.13-131.86-5.22Q-131.95-5.31-132.08-5.31L-132.08-5.31L-132.16-5.31L-132.16-5.46L-126.08-5.46L-126.08-4.00L-126.23-4.00Q-126.27-4.36-126.52-4.64Q-126.77-4.91-127.31-4.91L-127.31-4.91L-130.48-4.91L-130.48-0.91L-127.86-0.91Q-127.50-0.91-127.25-1.14Q-127.01-1.36-127.01-1.66L-127.01-1.66L-126.85-1.66L-126.85 0.32L-127.01 0.32Q-127.01 0.03-127.25-0.17Q-127.48-0.38-127.86-0.38L-127.86-0.38L-130.48-0.38L-130.48 4.41L-127.02 4.41Q-126.72 4.41-126.50 4.27Q-126.28 4.13-126.13 3.93Q-125.98 3.73-125.91 3.50Q-125.84 3.27-125.84 3.11L-125.84 3.11L-125.68 3.11L-125.68 4.96L-132.16 4.96Z"/><path fill="#ffffff" opacity="1" d="M-114.42 4.96L-114.42 4.81L-114.34 4.81Q-113.96 4.81-113.96 4.46L-113.96 4.46Q-113.96 4.33-114.00 4.19L-114.00 4.19L-115.43 0.35L-118.19 0.35L-119.57 4.13Q-119.61 4.25-119.61 4.36L-119.61 4.36Q-119.61 4.57-119.50 4.69Q-119.39 4.81-119.27 4.81L-119.27 4.81L-119.19 4.81L-119.19 4.96L-120.94 4.96L-120.94 4.81L-120.86 4.81Q-120.66 4.81-120.46 4.56Q-120.26 4.32-120.14 3.98L-120.14 3.98L-116.52-5.65L-112.98 3.89Q-112.87 4.21-112.67 4.51Q-112.47 4.81-112.16 4.81L-112.16 4.81L-112.08 4.81L-112.08 4.96L-114.42 4.96ZM-116.82-3.49L-118.03-0.19L-115.60-0.19L-116.82-3.49Z"/><path fill="#ffffff" opacity="1" d="M-104.56 4.81L-104.56 4.81L-104.48 4.81L-104.48 4.96L-106.72 4.96L-106.72 4.81L-106.64 4.81Q-106.52 4.81-106.42 4.71Q-106.33 4.62-106.25 4.49Q-106.18 4.36-106.15 4.21Q-106.12 4.06-106.12 3.94L-106.12 3.94L-106.12-4.88L-107.95-4.88Q-108.21-4.88-108.40-4.77Q-108.59-4.66-108.71-4.49Q-108.84-4.33-108.90-4.13Q-108.96-3.93-108.96-3.74L-108.96-3.74L-109.12-3.74L-109.12-5.46L-102.03-5.46L-102.03-3.74L-102.19-3.74Q-102.19-3.93-102.25-4.13Q-102.31-4.33-102.44-4.49Q-102.57-4.66-102.76-4.77Q-102.94-4.88-103.20-4.88L-103.20-4.88L-105.06-4.88L-105.06 3.94Q-105.06 4.06-105.03 4.21Q-105.00 4.36-104.93 4.49Q-104.86 4.62-104.77 4.71Q-104.68 4.81-104.56 4.81Z"/><path fill="#ffffff" opacity="1" d="M-97.11 4.96L-97.11 4.81L-97.04 4.81Q-96.91 4.81-96.81 4.72Q-96.72 4.63-96.65 4.51Q-96.58 4.38-96.54 4.24Q-96.50 4.09-96.50 3.97L-96.50 3.97L-96.50-4.48Q-96.50-4.60-96.54-4.74Q-96.58-4.88-96.65-5.01Q-96.72-5.13-96.81-5.22Q-96.91-5.31-97.04-5.31L-97.04-5.31L-97.11-5.31L-97.11-5.46L-91.03-5.46L-91.03-4.00L-91.19-4.00Q-91.22-4.36-91.47-4.64Q-91.73-4.91-92.26-4.91L-92.26-4.91L-95.44-4.91L-95.44-0.91L-92.82-0.91Q-92.45-0.91-92.21-1.14Q-91.96-1.36-91.96-1.66L-91.96-1.66L-91.81-1.66L-91.81 0.32L-91.96 0.32Q-91.96 0.03-92.20-0.17Q-92.44-0.38-92.82-0.38L-92.82-0.38L-95.44-0.38L-95.44 4.41L-91.98 4.41Q-91.68 4.41-91.46 4.27Q-91.24 4.13-91.09 3.93Q-90.94 3.73-90.87 3.50Q-90.79 3.27-90.79 3.11L-90.79 3.11L-90.64 3.11L-90.64 4.96L-97.11 4.96Z"/><path fill="#ffffff" opacity="1" d=""/><path fill="#ffffff" opacity="1" d="M-77.92-5.31L-77.92-5.46L-75.74-5.46L-75.74-5.31Q-75.85-5.29-75.94-5.21Q-76.04-5.13-76.04-4.97L-76.04-4.97Q-76.04-4.90-75.99-4.80L-75.99-4.80L-73.62-0.65L-71.34-4.58Q-71.28-4.71-71.26-4.77Q-71.23-4.83-71.23-4.93L-71.23-4.93Q-71.27-5.18-71.42-5.24Q-71.57-5.31-71.60-5.31L-71.60-5.31L-71.60-5.46L-69.91-5.46L-69.91-5.31Q-70.14-5.31-70.39-5.01Q-70.63-4.72-70.81-4.42L-70.81-4.42L-73.27-0.16L-73.27 3.94Q-73.27 4.06-73.23 4.21Q-73.19 4.35-73.13 4.48Q-73.07 4.62-72.97 4.71Q-72.88 4.81-72.75 4.81L-72.75 4.81L-72.67 4.81L-72.67 4.96L-74.93 4.96L-74.93 4.81L-74.85 4.81Q-74.73 4.81-74.63 4.72Q-74.54 4.63-74.47 4.50Q-74.39 4.36-74.36 4.21Q-74.33 4.06-74.33 3.94L-74.33 3.94L-74.33-0.01L-76.87-4.37Q-76.95-4.50-77.06-4.66Q-77.18-4.82-77.30-4.96Q-77.43-5.10-77.57-5.20Q-77.71-5.31-77.84-5.31L-77.84-5.31L-77.92-5.31Z"/><path fill="#ffffff" opacity="1" d="M-60.96-5.62L-60.96-5.62Q-59.73-5.62-58.75-5.19Q-57.77-4.75-57.09-4.02Q-56.40-3.28-56.03-2.31Q-55.66-1.34-55.66-0.28L-55.66-0.28Q-55.66 0.90-56.09 1.90Q-56.52 2.89-57.28 3.60Q-58.04 4.32-59.04 4.72Q-60.05 5.12-61.19 5.12L-61.19 5.12Q-62.40 5.12-63.37 4.68Q-64.35 4.24-65.02 3.51Q-65.69 2.78-66.05 1.84Q-66.42 0.89-66.42-0.14L-66.42-0.14Q-66.42-1.15-66.05-2.14Q-65.69-3.13-64.99-3.90Q-64.28-4.67-63.27-5.15Q-62.26-5.62-60.96-5.62ZM-60.98 4.57L-60.98 4.57Q-59.92 4.52-59.12 4.09Q-58.33 3.65-57.79 2.98Q-57.25 2.31-56.99 1.50Q-56.73 0.70-56.73-0.09L-56.73-0.09Q-56.73-0.96-57.05-1.85Q-57.36-2.73-57.95-3.45Q-58.53-4.17-59.34-4.62Q-60.16-5.07-61.17-5.07L-61.17-5.07Q-62.15-5.07-62.92-4.64Q-63.70-4.20-64.24-3.52Q-64.79-2.84-65.07-2.00Q-65.36-1.17-65.36-0.36L-65.36-0.36Q-65.36 0.51-65.02 1.38Q-64.69 2.26-64.11 2.97Q-63.52 3.68-62.73 4.13Q-61.93 4.57-60.98 4.57Z"/><path fill="#ffffff" opacity="1" d="M-50.22-5.31L-50.22-5.46L-47.98-5.46L-47.98-5.31L-48.06-5.31Q-48.18-5.31-48.28-5.22Q-48.37-5.13-48.44-5.01Q-48.51-4.88-48.55-4.74Q-48.58-4.60-48.58-4.48L-48.58-4.48L-48.58 1.76Q-48.58 2.37-48.45 2.89Q-48.32 3.42-48.02 3.79Q-47.72 4.17-47.23 4.39Q-46.74 4.60-46.03 4.60L-46.03 4.60Q-45.24 4.60-44.77 4.35Q-44.30 4.09-44.04 3.69Q-43.79 3.29-43.71 2.78Q-43.63 2.28-43.63 1.79L-43.63 1.79L-43.63-4.48Q-43.63-4.60-43.66-4.74Q-43.69-4.88-43.77-5.01Q-43.84-5.13-43.93-5.22Q-44.03-5.31-44.14-5.31L-44.14-5.31L-44.22-5.31L-44.22-5.46L-42.49-5.46L-42.49-5.31L-42.57-5.31Q-42.70-5.31-42.79-5.22Q-42.87-5.13-42.94-5.01Q-43.02-4.88-43.05-4.74Q-43.08-4.60-43.08-4.48L-43.08-4.48L-43.08 1.74Q-43.08 2.77-43.33 3.42Q-43.58 4.08-44.03 4.46Q-44.47 4.84-45.06 4.98Q-45.65 5.12-46.32 5.12L-46.32 5.12Q-47.03 5.12-47.64 4.97Q-48.25 4.82-48.69 4.44Q-49.13 4.06-49.38 3.41Q-49.64 2.75-49.64 1.76L-49.64 1.76L-49.64-4.48Q-49.64-4.60-49.67-4.74Q-49.70-4.88-49.77-5.01Q-49.84-5.13-49.94-5.22Q-50.03-5.31-50.14-5.31L-50.14-5.31L-50.22-5.31Z"/><path fill="#ffffff" opacity="1" d="M-34.80 4.81L-34.80 4.81L-34.72 4.81L-34.72 4.96L-36.95 4.96L-36.95 4.81L-36.87 4.81Q-36.76 4.81-36.66 4.71Q-36.57 4.62-36.50 4.49Q-36.43 4.36-36.40 4.21Q-36.36 4.06-36.36 3.94L-36.36 3.94L-36.36-4.48Q-36.36-4.60-36.40-4.74Q-36.43-4.88-36.50-5.01Q-36.57-5.13-36.66-5.22Q-36.76-5.31-36.87-5.31L-36.87-5.31L-36.95-5.31L-36.95-5.46L-34.20-5.46Q-32.62-5.46-31.76-4.85Q-30.90-4.23-30.90-3.03L-30.90-3.03Q-30.90-2.43-31.09-1.98Q-31.29-1.53-31.62-1.21Q-31.96-0.88-32.41-0.69Q-32.86-0.49-33.36-0.39L-33.36-0.39L-32.22 1.35Q-31.81 1.98-31.39 2.59Q-30.96 3.19-30.55 3.84L-30.55 3.84Q-30.44 4.00-30.30 4.17Q-30.17 4.35-30.02 4.49Q-29.87 4.63-29.70 4.72Q-29.54 4.81-29.36 4.81L-29.36 4.81L-29.36 4.96L-30.04 4.96Q-30.68 4.96-31.08 4.66Q-31.48 4.35-31.75 3.94L-31.75 3.94Q-32.46 2.89-33.16 1.82Q-33.87 0.74-34.56-0.30L-34.56-0.30Q-34.74-0.31-34.93-0.34Q-35.13-0.36-35.31-0.39L-35.31-0.39L-35.31 3.94Q-35.31 4.06-35.27 4.21Q-35.24 4.36-35.17 4.49Q-35.10 4.62-35.01 4.71Q-34.93 4.81-34.80 4.81ZM-35.07-4.93L-35.31-4.93L-35.31-0.91L-35.23-0.91Q-35.10-0.90-34.82-0.89Q-34.55-0.88-34.14-0.88L-34.14-0.88Q-33.80-0.88-33.43-0.99Q-33.06-1.09-32.74-1.33Q-32.41-1.58-32.20-1.97Q-31.99-2.37-31.99-2.97L-31.99-2.97Q-31.99-3.57-32.22-3.95Q-32.45-4.33-32.85-4.55Q-33.25-4.77-33.82-4.85Q-34.39-4.93-35.07-4.93L-35.07-4.93Z"/><path fill="#ffffff" opacity="1" d=""/><path fill="#ffffff" opacity="1" d="M-16.16-5.31L-16.16-5.46L-13.90-5.46L-13.90-5.31L-13.98-5.31Q-14.09-5.31-14.18-5.22Q-14.28-5.13-14.34-5.01Q-14.40-4.90-14.44-4.75Q-14.48-4.60-14.48-4.48L-14.48-4.48L-14.48 3.94Q-14.48 4.06-14.45 4.21Q-14.42 4.36-14.35 4.49Q-14.28 4.62-14.19 4.71Q-14.10 4.81-13.98 4.81L-13.98 4.81L-13.90 4.81L-13.90 4.96L-16.16 4.96L-16.16 4.81L-16.08 4.81Q-15.95 4.81-15.86 4.72Q-15.76 4.63-15.69 4.50Q-15.62 4.36-15.59 4.21Q-15.56 4.06-15.56 3.94L-15.56 3.94L-15.56-4.48Q-15.56-4.60-15.59-4.74Q-15.62-4.88-15.69-5.01Q-15.76-5.13-15.86-5.22Q-15.95-5.31-16.08-5.31L-16.08-5.31L-16.16-5.31Z"/><path fill="#ffffff" opacity="1" d="M-8.35 4.96L-8.35 4.81L-8.27 4.81Q-8.16 4.81-8.07 4.71Q-7.97 4.62-7.90 4.49Q-7.83 4.36-7.80 4.21Q-7.77 4.06-7.77 3.94L-7.77 3.94L-7.77-4.48Q-7.77-4.60-7.80-4.74Q-7.83-4.88-7.89-5.01Q-7.96-5.13-8.05-5.22Q-8.14-5.31-8.27-5.31L-8.27-5.31L-8.35-5.31L-8.35-5.46L-5.30-5.46Q-4.05-5.46-3.06-5.03Q-2.06-4.60-1.37-3.86Q-0.69-3.13-0.32-2.18Q0.04-1.23 0.04-0.20L0.04-0.20Q0.04 0.76-0.31 1.68Q-0.66 2.61-1.35 3.34Q-2.05 4.06-3.09 4.51Q-4.13 4.96-5.51 4.96L-5.51 4.96L-8.35 4.96ZM-1.03 0.03L-1.03 0.03Q-1.03-0.98-1.40-1.88Q-1.76-2.78-2.42-3.45Q-3.07-4.12-3.97-4.52Q-4.86-4.91-5.90-4.91L-5.90-4.91L-6.71-4.91L-6.71 4.41L-5.87 4.41Q-5.02 4.41-4.16 4.15Q-3.29 3.89-2.60 3.34Q-1.90 2.80-1.47 1.98Q-1.03 1.16-1.03 0.03Z"/><path fill="#ffffff" opacity="1" d="M5.44 4.96L5.44 4.81L5.52 4.81Q5.65 4.81 5.74 4.72Q5.84 4.63 5.91 4.51Q5.98 4.38 6.02 4.24Q6.06 4.09 6.06 3.97L6.06 3.97L6.06-4.48Q6.06-4.60 6.02-4.74Q5.98-4.88 5.91-5.01Q5.84-5.13 5.74-5.22Q5.65-5.31 5.52-5.31L5.52-5.31L5.44-5.31L5.44-5.46L11.53-5.46L11.53-4.00L11.37-4.00Q11.34-4.36 11.08-4.64Q10.83-4.91 10.29-4.91L10.29-4.91L7.12-4.91L7.12-0.91L9.74-0.91Q10.10-0.91 10.35-1.14Q10.59-1.36 10.59-1.66L10.59-1.66L10.75-1.66L10.75 0.32L10.59 0.32Q10.59 0.03 10.36-0.17Q10.12-0.38 9.74-0.38L9.74-0.38L7.12-0.38L7.12 4.41L10.58 4.41Q10.88 4.41 11.10 4.27Q11.32 4.13 11.47 3.93Q11.62 3.73 11.69 3.50Q11.76 3.27 11.76 3.11L11.76 3.11L11.92 3.11L11.92 4.96L5.44 4.96Z"/><path fill="#ffffff" opacity="1" d="M23.19 4.96L23.19 4.81L23.27 4.81Q23.64 4.81 23.64 4.46L23.64 4.46Q23.64 4.33 23.60 4.19L23.60 4.19L22.18 0.35L19.41 0.35L18.04 4.13Q17.99 4.25 17.99 4.36L17.99 4.36Q17.99 4.57 18.10 4.69Q18.21 4.81 18.34 4.81L18.34 4.81L18.41 4.81L18.41 4.96L16.66 4.96L16.66 4.81L16.74 4.81Q16.95 4.81 17.14 4.56Q17.34 4.32 17.47 3.98L17.47 3.98L21.09-5.65L24.62 3.89Q24.73 4.21 24.93 4.51Q25.13 4.81 25.45 4.81L25.45 4.81L25.52 4.81L25.52 4.96L23.19 4.96ZM20.78-3.49L19.57-0.19L22.00-0.19L20.78-3.49Z"/><path fill="#ffffff" opacity="1" d="M36.46 2.17L36.46 2.17Q36.46 2.96 36.14 3.52Q35.83 4.08 35.33 4.43Q34.83 4.77 34.21 4.93Q33.58 5.09 32.97 5.09L32.97 5.09Q32.33 5.09 31.88 4.96Q31.42 4.84 31.04 4.73L31.04 4.73Q30.79 4.65 30.58 4.59Q30.38 4.54 30.17 4.54L30.17 4.54L30.17 2.74L30.33 2.74Q30.33 3.34 30.64 3.69Q30.94 4.05 31.36 4.24Q31.77 4.43 32.18 4.48Q32.59 4.54 32.78 4.54L32.78 4.54Q33.46 4.54 33.95 4.34Q34.44 4.14 34.75 3.82Q35.07 3.49 35.22 3.10Q35.37 2.70 35.37 2.29L35.37 2.29Q35.37 1.77 35.15 1.42Q34.93 1.06 34.57 0.79Q34.21 0.52 33.76 0.33Q33.30 0.14 32.82-0.05L32.82-0.05Q32.29-0.25 31.77-0.47Q31.24-0.69 30.83-1.02Q30.42-1.34 30.17-1.79Q29.92-2.24 29.92-2.90L29.92-2.90Q29.92-3.60 30.19-4.11Q30.45-4.63 30.90-4.96Q31.36-5.29 31.93-5.46Q32.51-5.62 33.11-5.62L33.11-5.62Q33.52-5.62 33.88-5.57Q34.25-5.51 34.58-5.43L34.58-5.43Q34.85-5.37 35.10-5.33Q35.35-5.29 35.59-5.29L35.59-5.29L35.59-3.66L35.43-3.66Q35.40-4.48 34.78-4.78Q34.17-5.07 33.08-5.07L33.08-5.07Q32.45-5.07 32.04-4.86Q31.64-4.64 31.40-4.33Q31.17-4.03 31.08-3.67Q30.99-3.32 30.99-3.05L30.99-3.05Q30.99-2.60 31.19-2.29Q31.39-1.97 31.72-1.74Q32.05-1.50 32.48-1.31Q32.92-1.12 33.39-0.95L33.39-0.95Q33.93-0.74 34.48-0.50Q35.04-0.27 35.47 0.08Q35.91 0.43 36.18 0.93Q36.46 1.44 36.46 2.17Z"/><path fill="#ffffff" opacity="1" d=""/><path fill="#ffffff" opacity="1" d="M50.06-5.31L50.06-5.46L52.32-5.46L52.32-5.31L52.24-5.31Q52.13-5.31 52.04-5.22Q51.94-5.13 51.88-5.01Q51.82-4.90 51.78-4.75Q51.74-4.60 51.74-4.48L51.74-4.48L51.74 3.94Q51.74 4.06 51.77 4.21Q51.80 4.36 51.87 4.49Q51.94 4.62 52.03 4.71Q52.12 4.81 52.24 4.81L52.24 4.81L52.32 4.81L52.32 4.96L50.06 4.96L50.06 4.81L50.14 4.81Q50.27 4.81 50.36 4.72Q50.46 4.63 50.53 4.50Q50.60 4.36 50.63 4.21Q50.66 4.06 50.66 3.94L50.66 3.94L50.66-4.48Q50.66-4.60 50.63-4.74Q50.60-4.88 50.53-5.01Q50.46-5.13 50.36-5.22Q50.27-5.31 50.14-5.31L50.14-5.31L50.06-5.31Z"/><path fill="#ffffff" opacity="1" d="M59.54 4.81L59.54 4.81L59.62 4.81L59.62 4.96L57.87 4.96L57.87 4.81L57.95 4.81Q58.06 4.81 58.16 4.71Q58.26 4.62 58.33 4.49Q58.39 4.36 58.43 4.21Q58.47 4.06 58.47 3.94L58.47 3.94L58.47-4.48Q58.47-4.60 58.44-4.74Q58.42-4.88 58.36-5.01Q58.29-5.13 58.18-5.22Q58.07-5.31 57.91-5.31L57.91-5.31L57.84-5.31L57.84-5.46L59.43-5.46L65.17 3.57L65.17-4.48Q65.17-4.60 65.13-4.74Q65.09-4.88 65.02-5.01Q64.95-5.13 64.85-5.22Q64.76-5.31 64.63-5.31L64.63-5.31L64.55-5.31L64.55-5.46L66.32-5.46L66.32-5.31L66.24-5.31Q66.12-5.31 66.02-5.22Q65.93-5.13 65.85-5.01Q65.78-4.88 65.75-4.74Q65.72-4.60 65.72-4.48L65.72-4.48L65.72 4.96L64.74 4.96L59.02-4.11L59.02 3.94Q59.02 4.06 59.05 4.21Q59.08 4.36 59.16 4.49Q59.23 4.62 59.32 4.71Q59.42 4.81 59.54 4.81Z"/><path fill="#ffffff" opacity="1" d=""/><path fill="#ffffff" opacity="1" d="M82.15 4.81L82.15 4.81L82.23 4.81L82.23 4.96L80.00 4.96L80.00 4.81L80.08 4.81Q80.19 4.81 80.29 4.71Q80.38 4.62 80.45 4.49Q80.52 4.36 80.56 4.21Q80.59 4.06 80.59 3.94L80.59 3.94L80.59-4.48Q80.59-4.60 80.56-4.74Q80.52-4.88 80.45-5.01Q80.38-5.13 80.29-5.22Q80.19-5.31 80.08-5.31L80.08-5.31L80.00-5.31L80.00-5.46L82.75-5.46Q84.33-5.46 85.19-4.85Q86.05-4.23 86.05-3.03L86.05-3.03Q86.05-2.43 85.86-1.98Q85.66-1.53 85.33-1.21Q85.00-0.88 84.55-0.69Q84.10-0.49 83.59-0.39L83.59-0.39L84.73 1.35Q85.14 1.98 85.56 2.59Q85.99 3.19 86.40 3.84L86.40 3.84Q86.51 4.00 86.65 4.17Q86.78 4.35 86.93 4.49Q87.08 4.63 87.25 4.72Q87.41 4.81 87.59 4.81L87.59 4.81L87.59 4.96L86.91 4.96Q86.28 4.96 85.87 4.66Q85.47 4.35 85.20 3.94L85.20 3.94Q84.49 2.89 83.79 1.82Q83.08 0.74 82.39-0.30L82.39-0.30Q82.22-0.31 82.02-0.34Q81.82-0.36 81.65-0.39L81.65-0.39L81.65 3.94Q81.65 4.06 81.68 4.21Q81.71 4.36 81.78 4.49Q81.85 4.62 81.94 4.71Q82.03 4.81 82.15 4.81ZM81.88-4.93L81.65-4.93L81.65-0.91L81.73-0.91Q81.85-0.90 82.13-0.89Q82.40-0.88 82.82-0.88L82.82-0.88Q83.15-0.88 83.52-0.99Q83.89-1.09 84.21-1.33Q84.54-1.58 84.75-1.97Q84.96-2.37 84.96-2.97L84.96-2.97Q84.96-3.57 84.74-3.95Q84.51-4.33 84.10-4.55Q83.70-4.77 83.13-4.85Q82.56-4.93 81.88-4.93L81.88-4.93Z"/><path fill="#ffffff" opacity="1" d="M92.58-5.31L92.58-5.46L94.82-5.46L94.82-5.31L94.74-5.31Q94.62-5.31 94.52-5.22Q94.43-5.13 94.36-5.01Q94.29-4.88 94.25-4.74Q94.22-4.60 94.22-4.48L94.22-4.48L94.22 1.76Q94.22 2.37 94.35 2.89Q94.48 3.42 94.78 3.79Q95.08 4.17 95.57 4.39Q96.06 4.60 96.77 4.60L96.77 4.60Q97.56 4.60 98.03 4.35Q98.51 4.09 98.76 3.69Q99.01 3.29 99.09 2.78Q99.17 2.28 99.17 1.79L99.17 1.79L99.17-4.48Q99.17-4.60 99.14-4.74Q99.11-4.88 99.03-5.01Q98.96-5.13 98.87-5.22Q98.77-5.31 98.66-5.31L98.66-5.31L98.58-5.31L98.58-5.46L100.31-5.46L100.31-5.31L100.23-5.31Q100.10-5.31 100.01-5.22Q99.93-5.13 99.86-5.01Q99.78-4.88 99.75-4.74Q99.72-4.60 99.72-4.48L99.72-4.48L99.72 1.74Q99.72 2.77 99.47 3.42Q99.22 4.08 98.77 4.46Q98.33 4.84 97.74 4.98Q97.15 5.12 96.48 5.12L96.48 5.12Q95.77 5.12 95.16 4.97Q94.56 4.82 94.11 4.44Q93.67 4.06 93.42 3.41Q93.16 2.75 93.16 1.76L93.16 1.76L93.16-4.48Q93.16-4.60 93.13-4.74Q93.10-4.88 93.03-5.01Q92.96-5.13 92.86-5.22Q92.77-5.31 92.66-5.31L92.66-5.31L92.58-5.31Z"/><path fill="#ffffff" opacity="1" d="M112.25 2.17L112.25 2.17Q112.25 2.96 111.94 3.52Q111.62 4.08 111.12 4.43Q110.62 4.77 110.00 4.93Q109.38 5.09 108.76 5.09L108.76 5.09Q108.13 5.09 107.67 4.96Q107.21 4.84 106.83 4.73L106.83 4.73Q106.58 4.65 106.37 4.59Q106.17 4.54 105.96 4.54L105.96 4.54L105.96 2.74L106.12 2.74Q106.12 3.34 106.43 3.69Q106.74 4.05 107.15 4.24Q107.56 4.43 107.97 4.48Q108.38 4.54 108.57 4.54L108.57 4.54Q109.25 4.54 109.74 4.34Q110.23 4.14 110.54 3.82Q110.86 3.49 111.01 3.10Q111.16 2.70 111.16 2.29L111.16 2.29Q111.16 1.77 110.94 1.42Q110.72 1.06 110.36 0.79Q110.01 0.52 109.55 0.33Q109.09 0.14 108.62-0.05L108.62-0.05Q108.08-0.25 107.56-0.47Q107.04-0.69 106.63-1.02Q106.22-1.34 105.96-1.79Q105.71-2.24 105.71-2.90L105.71-2.90Q105.71-3.60 105.98-4.11Q106.25-4.63 106.70-4.96Q107.15-5.29 107.72-5.46Q108.30-5.62 108.90-5.62L108.90-5.62Q109.31-5.62 109.68-5.57Q110.04-5.51 110.37-5.43L110.37-5.43Q110.64-5.37 110.89-5.33Q111.15-5.29 111.38-5.29L111.38-5.29L111.38-3.66L111.22-3.66Q111.19-4.48 110.58-4.78Q109.96-5.07 108.87-5.07L108.87-5.07Q108.24-5.07 107.83-4.86Q107.43-4.64 107.20-4.33Q106.96-4.03 106.87-3.67Q106.78-3.32 106.78-3.05L106.78-3.05Q106.78-2.60 106.98-2.29Q107.18-1.97 107.51-1.74Q107.84-1.50 108.28-1.31Q108.71-1.12 109.19-0.95L109.19-0.95Q109.72-0.74 110.28-0.50Q110.83-0.27 111.26 0.08Q111.70 0.43 111.97 0.93Q112.25 1.44 112.25 2.17Z"/><path fill="#ffffff" opacity="1" d="M123.48 2.17L123.48 2.17Q123.48 2.96 123.17 3.52Q122.85 4.08 122.36 4.43Q121.86 4.77 121.23 4.93Q120.61 5.09 119.99 5.09L119.99 5.09Q119.36 5.09 118.90 4.96Q118.44 4.84 118.07 4.73L118.07 4.73Q117.81 4.65 117.61 4.59Q117.40 4.54 117.20 4.54L117.20 4.54L117.20 2.74L117.35 2.74Q117.35 3.34 117.66 3.69Q117.97 4.05 118.38 4.24Q118.79 4.43 119.20 4.48Q119.61 4.54 119.80 4.54L119.80 4.54Q120.48 4.54 120.97 4.34Q121.46 4.14 121.78 3.82Q122.09 3.49 122.24 3.10Q122.39 2.70 122.39 2.29L122.39 2.29Q122.39 1.77 122.17 1.42Q121.95 1.06 121.60 0.79Q121.24 0.52 120.78 0.33Q120.32 0.14 119.85-0.05L119.85-0.05Q119.31-0.25 118.79-0.47Q118.27-0.69 117.86-1.02Q117.45-1.34 117.20-1.79Q116.94-2.24 116.94-2.90L116.94-2.90Q116.94-3.60 117.21-4.11Q117.48-4.63 117.93-4.96Q118.38-5.29 118.96-5.46Q119.53-5.62 120.14-5.62L120.14-5.62Q120.55-5.62 120.91-5.57Q121.27-5.51 121.60-5.43L121.60-5.43Q121.87-5.37 122.13-5.33Q122.38-5.29 122.62-5.29L122.62-5.29L122.62-3.66L122.46-3.66Q122.43-4.48 121.81-4.78Q121.19-5.07 120.10-5.07L120.10-5.07Q119.47-5.07 119.07-4.86Q118.67-4.64 118.43-4.33Q118.19-4.03 118.10-3.67Q118.02-3.32 118.02-3.05L118.02-3.05Q118.02-2.60 118.22-2.29Q118.41-1.97 118.74-1.74Q119.08-1.50 119.51-1.31Q119.95-1.12 120.42-0.95L120.42-0.95Q120.96-0.74 121.51-0.50Q122.06-0.27 122.50 0.08Q122.93 0.43 123.21 0.93Q123.48 1.44 123.48 2.17Z"/><path fill="#ffffff" opacity="1" d="M128.94-5.31L128.94-5.46L131.20-5.46L131.20-5.31L131.12-5.31Q131.01-5.31 130.91-5.22Q130.82-5.13 130.75-5.01Q130.69-4.90 130.65-4.75Q130.61-4.60 130.61-4.48L130.61-4.48L130.61 3.94Q130.61 4.06 130.64 4.21Q130.67 4.36 130.74 4.49Q130.82 4.62 130.90 4.71Q130.99 4.81 131.12 4.81L131.12 4.81L131.20 4.81L131.20 4.96L128.94 4.96L128.94 4.81L129.01 4.81Q129.14 4.81 129.24 4.72Q129.33 4.63 129.40 4.50Q129.47 4.36 129.50 4.21Q129.54 4.06 129.54 3.94L129.54 3.94L129.54-4.48Q129.54-4.60 129.50-4.74Q129.47-4.88 129.40-5.01Q129.33-5.13 129.24-5.22Q129.14-5.31 129.01-5.31L129.01-5.31L128.94-5.31Z"/><path fill="#ffffff" opacity="1" d="M142.79 4.96L142.79 4.81L142.87 4.81Q143.25 4.81 143.25 4.46L143.25 4.46Q143.25 4.33 143.20 4.19L143.20 4.19L141.78 0.35L139.02 0.35L137.64 4.13Q137.59 4.25 137.59 4.36L137.59 4.36Q137.59 4.57 137.70 4.69Q137.82 4.81 137.94 4.81L137.94 4.81L138.02 4.81L138.02 4.96L136.27 4.96L136.27 4.81L136.35 4.81Q136.55 4.81 136.75 4.56Q136.95 4.32 137.07 3.98L137.07 3.98L140.69-5.65L144.23 3.89Q144.34 4.21 144.54 4.51Q144.74 4.81 145.05 4.81L145.05 4.81L145.13 4.81L145.13 4.96L142.79 4.96ZM140.39-3.49L139.17-0.19L141.61-0.19L140.39-3.49Z"/><path fill="#ffffff" opacity="1" d="M151.78 4.81L151.78 4.81L151.86 4.81L151.86 4.96L150.11 4.96L150.11 4.81L150.19 4.81Q150.30 4.81 150.40 4.71Q150.50 4.62 150.57 4.49Q150.63 4.36 150.67 4.21Q150.71 4.06 150.71 3.94L150.71 3.94L150.71-4.48Q150.71-4.60 150.68-4.74Q150.66-4.88 150.60-5.01Q150.53-5.13 150.42-5.22Q150.31-5.31 150.16-5.31L150.16-5.31L150.08-5.31L150.08-5.46L151.67-5.46L157.41 3.57L157.41-4.48Q157.41-4.60 157.37-4.74Q157.33-4.88 157.26-5.01Q157.19-5.13 157.09-5.22Q157.00-5.31 156.87-5.31L156.87-5.31L156.79-5.31L156.79-5.46L158.56-5.46L158.56-5.31L158.48-5.31Q158.36-5.31 158.26-5.22Q158.17-5.13 158.09-5.01Q158.02-4.88 157.99-4.74Q157.96-4.60 157.96-4.48L157.96-4.48L157.96 4.96L156.98 4.96L151.26-4.11L151.26 3.94Q151.26 4.06 151.29 4.21Q151.32 4.36 151.40 4.49Q151.47 4.62 151.56 4.71Q151.66 4.81 151.78 4.81Z"/></g><g transform="matrix(0.7987251001839968 0 0 0.7987251001839968 250 188.27250391488406)"  >
<g style=""   >
		<g transform="matrix(1 0 0 1 -19.512500000000003 8.352000000000007)"  >
<path style="stroke: none; stroke-width: 1; stroke-dasharray: none; stroke-linecap: butt; stroke-dashoffset: 0; stroke-linejoin: miter; stroke-miterlimit: 4; fill: rgb(0,0,0); fill-rule: nonzero; opacity: 1;"  transform=" translate(-30.487499999999997, -58.352000000000004)" d="M 30.487 51.552 c -1.02 0 -1.984 0.229 -2.854 0.634 c 0.463 0.43 0.756 1.036 0.756 1.716 c 0 1.299 -1.053 2.352 -2.351 2.352 c -0.68 0 -1.286 -0.292 -1.718 -0.754 c -0.4 0.868 -0.632 1.832 -0.632 2.853 c 0 3.756 3.044 6.799 6.799 6.799 s 6.8 -3.043 6.8 -6.799 C 37.287 54.595 34.242 51.552 30.487 51.552 z" stroke-linecap="round" />
</g>
		<g transform="matrix(1 0 0 1 0.0009999999999976694 1.592499999999994)"  >
<path style="stroke: none; stroke-width: 1; stroke-dasharray: none; stroke-linecap: butt; stroke-dashoffset: 0; stroke-linejoin: miter; stroke-miterlimit: 4; fill: rgb(0,0,0); fill-rule: nonzero; opacity: 1;"  transform=" translate(-50.001, -51.592499999999994)" d="M 81.67 38.557 c 4.09 -4.834 7.106 -10.607 8.67 -16.953 c -8.578 9.088 -23.557 15.115 -40.615 15.115 c -17.059 0 -32.039 -6.027 -40.617 -15.115 c 1.589 6.446 4.679 12.299 8.868 17.18 C 11.533 42.914 7.259 50.131 7.259 58.352 c 0 12.829 10.4 23.229 23.229 23.229 c 8.184 0 15.376 -4.236 19.513 -10.63 c 4.138 6.394 11.328 10.63 19.514 10.63 c 12.829 0 23.228 -10.399 23.228 -23.229 C 92.741 49.98 88.312 42.646 81.67 38.557 z M 30.487 74.001 c -8.643 0 -15.649 -7.006 -15.649 -15.649 c 0 -8.643 7.006 -15.651 15.649 -15.651 s 15.651 7.009 15.651 15.651 C 46.139 66.995 39.13 74.001 30.487 74.001 z M 69.514 74.001 c -8.645 0 -15.65 -7.006 -15.65 -15.649 c 0 -8.643 7.006 -15.651 15.65 -15.651 c 8.643 0 15.649 7.009 15.649 15.651 C 85.163 66.995 78.156 74.001 69.514 74.001 z" stroke-linecap="round" />
</g>
		<g transform="matrix(1 0 0 1 19.511500000000016 8.350500000000004)"  >
<path style="stroke: none; stroke-width: 1; stroke-dasharray: none; stroke-linecap: butt; stroke-dashoffset: 0; stroke-linejoin: miter; stroke-miterlimit: 4; fill: rgb(0,0,0); fill-rule: nonzero; opacity: 1;"  transform=" translate(-69.51150000000001, -58.350500000000004)" d="M 73.961 56.253 c -1.298 0 -2.351 -1.053 -2.351 -2.352 c 0 -0.68 0.293 -1.286 0.754 -1.716 c -0.867 -0.404 -1.832 -0.634 -2.851 -0.634 c -3.757 0 -6.802 3.043 -6.802 6.8 c 0 3.756 3.045 6.799 6.802 6.799 c 3.754 0 6.799 -3.043 6.799 -6.799 c 0 -1.021 -0.231 -1.984 -0.635 -2.853 C 75.249 55.961 74.641 56.253 73.961 56.253 z" stroke-linecap="round" />
</g>
		<g transform="matrix(1 0 0 1 0.5 35.23750000000002)"  >
<polygon style="stroke: none; stroke-width: 1; stroke-dasharray: none; stroke-linecap: butt; stroke-dashoffset: 0; stroke-linejoin: miter; stroke-miterlimit: 4; fill: rgb(0,0,0); fill-rule: nonzero; opacity: 1;"  points="0,9.573500000000003 -6.9069999999999965,-2.1515000000000057 0,-9.573500000000003 6.9069999999999965,-2.1515000000000057 " />
</g>
		<g transform="matrix(1 0 0 1 -1.9965000000000046 -21.7205)"  >
<path style="stroke: none; stroke-width: 1; stroke-dasharray: none; stroke-linecap: butt; stroke-dashoffset: 0; stroke-linejoin: miter; stroke-miterlimit: 4; fill: rgb(0,0,0); fill-rule: nonzero; opacity: 1;"  transform=" translate(-48.003499999999995, -28.2795)" d="M 48.004 28.341 l -15.899 -6.125 v 9.812 c 5.498 1.509 11.461 2.315 17.62 2.315 c 4.895 0 9.666 -0.511 14.177 -1.476 V 22.217 L 48.004 28.341 z" stroke-linecap="round" />
</g>
		<g transform="matrix(1 0 0 1 -1.4949999999999974 -33.5565)"  >
<polygon style="stroke: none; stroke-width: 1; stroke-dasharray: none; stroke-linecap: butt; stroke-dashoffset: 0; stroke-linejoin: miter; stroke-miterlimit: 4; fill: rgb(0,0,0); fill-rule: nonzero; opacity: 1;"  points="-0.0010000000000047748,10.2545 -28.630000000000003,-0.7744999999999997 -0.0010000000000047748,-10.2545 28.630000000000003,-0.7744999999999997 " />
</g>
</g>
</g>
</svg>