<svg xmlns="http://www.w3.org/2000/svg" width="1920" height="862.682" viewBox="0 0 1920 862.682">
  <g id="Group_524" data-name="Group 524" transform="translate(-12100 -20954.479)">
    <path id="Path_230" data-name="Path 230" d="M0,0H1920V862.682H0Z" transform="translate(12100 20954.479)" fill="#f0f5f9"/>
    <text id="ุฏุฑ_ุฌูุงู_ูุนูู_ูุง_ุฒูุงุฏ_ูุณุชูุฏ_ู_ุจุนุถู_ูุนูู_ูุง_ุชููุง_ูู_ูุนูู_ุฎูุจ_ุนุงูู_ุจุงูู_ูู_ูุงูุฏ_ุดูุง_ูู_ุดุงูู_ููุงู_ูุนูู_ุฎูุจ_ุงุณุชูู_ูู_ุฏุฑ_ุฒูุฏฺฏู_ุฏูุฏู_ุดูุง_ุชููุง_ูุนูู_ูู_ุจููู_ูุงููุฏ_ุฏูุณุช_ูููุงุฑ_ุจู_ุดุงฺฏุฑุฏ_ูุงู_ุชุงู_ุงุณุชูู_ูู_ูููุดู_ุจุง_ุจูุฏู_ุดูุง_ุฏุฑ_ููุงุณ_ุญุณ_ุขุฑุงูุด_ูู_ูุฑุฏู_ฺูู_ุจูุฏู_ุดูุง_ุฏุฑ_ููุง" data-name="ุฏุฑ ุฌูุงู ูุนูู ูุง ุฒูุงุฏ ูุณุชูุฏ ุู ุจุนุถู ูุนูู ูุง ุชููุง ูู ูุนูู ุฎูุจ ุนุงูู ุจุงูู ูู ูุงูุฏ ุุดูุง ูู ุดุงูู ููุงู ูุนูู ุฎูุจ ุงุณุชูู ูู ุฏุฑ ุฒูุฏฺฏู ุฏูุฏูุ ุดูุง ุชููุง ูุนูู ูู ุจููู ูุงููุฏ ุฏูุณุช ูููุงุฑ ุจู ุดุงฺฏุฑุฏ ูุงู ุชุงู ุงุณุชูู ูู ูููุดู ุจุง ุจูุฏู ุดูุง ุฏุฑ ููุงุณ ุญุณ ุขุฑุงูุด ูู ูุฑุฏู ฺูู ุจูุฏู ุดูุง ุฏุฑ ููุง" transform="translate(12240 21167.479)" font-size="24" font-family="Lora"><tspan x="0" y="26"> </tspan><tspan y="26"> </tspan><tspan y="26"> </tspan><tspan y="26"> </tspan><tspan y="26"> </tspan><tspan y="26"> </tspan><tspan y="26"> </tspan><tspan y="26"> </tspan><tspan y="26"> </tspan><tspan y="26"> </tspan><tspan y="26"> </tspan><tspan y="26"> </tspan><tspan y="26"> </tspan><tspan y="26"> </tspan><tspan y="26"> </tspan><tspan y="26"> </tspan><tspan y="26"> </tspan><tspan y="26"> </tspan><tspan y="26"> </tspan><tspan y="26"> </tspan><tspan y="26"> </tspan><tspan y="26"> </tspan><tspan y="26"> </tspan><tspan y="26"> </tspan><tspan y="26"> </tspan><tspan y="26"> </tspan><tspan y="26"> </tspan><tspan y="26"> </tspan><tspan y="26"> </tspan><tspan y="26"> </tspan><tspan y="26"> </tspan><tspan y="26"> </tspan><tspan y="26"> </tspan><tspan y="26" font-family="SegoeUI, Segoe UI">ุฏุฑ ุฌูุงู ูุนูู ูุง ุฒูุงุฏ ูุณุชูุฏ ุู ุจุนุถู ูุนูู ูุง ุชููุง ูู ูุนูู ุฎูุจ ุนุงูู ุจุงูู ูู ูุงูุฏ ุุดูุง ูู ุดุงูู ููุงู ูุนูู ุฎูุจ ุงุณุชูู ูู ุฏุฑ </tspan><tspan y="26"> </tspan><tspan x="0" y="76"> </tspan><tspan y="76"> </tspan><tspan y="76"> </tspan><tspan y="76"> </tspan><tspan y="76"> </tspan><tspan y="76"> </tspan><tspan y="76"> </tspan><tspan y="76"> </tspan><tspan y="76"> </tspan><tspan y="76"> </tspan><tspan y="76"> </tspan><tspan y="76"> </tspan><tspan y="76"> </tspan><tspan y="76"> </tspan><tspan y="76"> </tspan><tspan y="76"> </tspan><tspan y="76"> </tspan><tspan y="76"> </tspan><tspan y="76"> </tspan><tspan y="76"> </tspan><tspan y="76"> </tspan><tspan y="76"> </tspan><tspan y="76"> </tspan><tspan y="76"> </tspan><tspan y="76"> </tspan><tspan y="76"> </tspan><tspan y="76"> </tspan><tspan y="76"> </tspan><tspan y="76"> </tspan><tspan y="76"> </tspan><tspan y="76"> </tspan><tspan y="76"> </tspan><tspan y="76" font-family="SegoeUI, Segoe UI">ูุงููุฏ ุฏูุณุช ูููุงุฑ ุจู ุดุงฺฏุฑุฏ ูุงู ุชุงู ุงุณุชูู ูู ูููุดู ุจุง ุจูุฏู ุดูุง ุฏุฑ ููุงุณ ุญุณ ุขุฑุงูุด ูู ูุฑุฏู ฺูู ุจูุฏู ุดูุง ุฏุฑ ููุงุณ ุญุณ ูุซุจุช</tspan><tspan y="76"> </tspan><tspan x="0" y="126"> </tspan><tspan y="126"> </tspan><tspan y="126"> </tspan><tspan y="126"> </tspan><tspan y="126"> </tspan><tspan y="126"> </tspan><tspan y="126"> </tspan><tspan y="126"> </tspan><tspan y="126"> </tspan><tspan y="126"> </tspan><tspan y="126"> </tspan><tspan y="126"> </tspan><tspan y="126"> </tspan><tspan y="126"> </tspan><tspan y="126"> </tspan><tspan y="126"> </tspan><tspan y="126"> </tspan><tspan y="126"> </tspan><tspan y="126"> </tspan><tspan y="126"> </tspan><tspan y="126"> </tspan><tspan y="126"> </tspan><tspan y="126"> </tspan><tspan y="126"> </tspan><tspan y="126"> </tspan><tspan y="126"> </tspan><tspan y="126"> </tspan><tspan y="126"> </tspan><tspan y="126"> </tspan><tspan y="126"> </tspan><tspan y="126"> </tspan><tspan y="126"> </tspan><tspan y="126"> </tspan><tspan y="126"> </tspan><tspan y="126" font-family="SegoeUI, Segoe UI">ุดูุง ูุง ูููุฏ ูู ูุฑุฏ ุดูุง ูู ุงุณุชุงุฏ ุฎููู ุจุง ุนูู ุฎููู ุจุง ููุงุณ ุงุณุชูู ุูู ูููุดู ุขุฑุฒู ูู ูุฑุฏู ููุงููุฏ ุงุณุชุงุฏ ูุซู ุดูุง ุฏุฑ ุฒูุฏฺฏู ุงู </tspan><tspan y="126"> </tspan><tspan x="0" y="176"> </tspan><tspan y="176"> </tspan><tspan y="176"> </tspan><tspan y="176"> </tspan><tspan y="176"> </tspan><tspan y="176"> </tspan><tspan y="176"> </tspan><tspan y="176"> </tspan><tspan y="176"> </tspan><tspan y="176"> </tspan><tspan y="176"> </tspan><tspan y="176"> </tspan><tspan y="176"> </tspan><tspan y="176"> </tspan><tspan y="176"> </tspan><tspan y="176"> </tspan><tspan y="176"> </tspan><tspan y="176"> </tspan><tspan y="176"> </tspan><tspan y="176"> </tspan><tspan y="176"> </tspan><tspan y="176"> </tspan><tspan y="176"> </tspan><tspan y="176"> </tspan><tspan y="176"> </tspan><tspan y="176"> </tspan><tspan y="176"> </tspan><tspan y="176"> </tspan><tspan y="176"> </tspan><tspan y="176"> </tspan><tspan y="176" font-family="SegoeUI, Segoe UI">ุฏุงุดุชู ุฑุณูุฏู ุุฏุฑ ูุฌูุฏ ุดูุง ููู ฺูุฒ ูููุชู ุจูุฏ ูุฏุฑุช ุญุณ ูุซุจุช ุชูุงูุงูู ูุงูู ุจู ุชุฏุฑูุณ ูุงู ูุฎุชูู ุู ููฺูุงู ุงุนุชูุงุฏ ุจู ููุณ ุฏุงุดุชู ุญ</tspan><tspan y="176"> </tspan><tspan x="0" y="226"> </tspan><tspan y="226"> </tspan><tspan y="226"> </tspan><tspan y="226"> </tspan><tspan y="226"> </tspan><tspan y="226"> </tspan><tspan y="226"> </tspan><tspan y="226"> </tspan><tspan y="226"> </tspan><tspan y="226"> </tspan><tspan y="226"> </tspan><tspan y="226"> </tspan><tspan y="226"> </tspan><tspan y="226"> </tspan><tspan y="226"> </tspan><tspan y="226"> </tspan><tspan y="226"> </tspan><tspan y="226"> </tspan><tspan y="226"> </tspan><tspan y="226"> </tspan><tspan y="226"> </tspan><tspan y="226" font-family="SegoeUI, Segoe UI">ูุงู ุจูุฏ ูู ุฏุฑ ูุฌูุฏ ุดูุง ุฏูุฏู ููุดูุฏ ุุชุนุฑูู ุดูุง ุฑุง ูุฑฺูุฏุฑ ุจฺฏููู ูู ุงุณุชุงุฏ ูู ุจุฑุงู ุดูุง ุงู</tspan><tspan y="226" xml:space="preserve"> .</tspan><tspan x="0" y="276"> </tspan><tspan y="276" font-family="SegoeUI, Segoe UI">ุณููุชุงูุงูุง ููุชุงูููู</tspan><tspan y="276"></tspan><tspan font-family="SegoeUIEmoji, Segoe UI Emoji"><tspan x="0" y="326">๐ฉ๐ซโค๏ธ</tspan><tspan y="326" font-family="Lora">(</tspan><tspan y="326" font-family="SegoeUI, Segoe UI">ูุธูุฑ</tspan><tspan y="326" font-family="Lora">)</tspan></tspan></text>
    <text id="Mazhar_Kaka_Afghanistan." data-name="Mazhar Kaka, 
Afghanistan." transform="translate(12240 21669.479)" font-size="24" font-family="Lora-Bold, Lora" font-weight="700"><tspan x="0" y="24">Mazhar Kaka, </tspan><tspan x="0" y="74">Afghanistan.</tspan></text>
    <g id="Group_432" data-name="Group 432" transform="translate(12100 16812.477)">
      <text id="REVIEWS" transform="translate(843 4263)" font-size="48" font-family="Montserrat" font-weight="700"><tspan x="0" y="0">REVIEWS</tspan></text>
      <line id="Line_21" data-name="Line 21" x2="150" transform="translate(885.5 4284.5)" fill="none" stroke="#707070" stroke-width="1" opacity="0.4"/>
    </g>
  </g>
</svg>
