<svg xmlns="http://www.w3.org/2000/svg" width="762" height="193" viewBox="0 0 762 193">
  <defs>
    <style>
      .cls-1 {
        font-size: 72px;
        font-family: Montserrat;
        font-weight: 700;
        letter-spacing: 0.03em;
      }

      .cls-2, .cls-3 {
        fill: #fff;
        stroke: #000;
      }

      .cls-2 {
        opacity: 0.5;
      }

      .cls-3 {
        opacity: 0.81;
      }
    </style>
  </defs>
  <g id="Group_499" data-name="Group 499" transform="translate(-148 -361)">
    <text id="LANGUAGE_PURPOSE_" data-name="LANGUAGE PURPOSE " class="cls-1" transform="translate(374 361)"><tspan x="0" y="70">LANGUAGE </tspan><tspan x="0" y="158">PURPOSE </tspan></text>
    <g id="Group_492" data-name="Group 492" transform="translate(-80.968 333.852)">
      <g id="_13043092" data-name="13043092" transform="translate(228.968 37.928)">
        <g id="Group_446" data-name="Group 446">
          <path id="Path_236" data-name="Path 236" d="M192.517,110.8c6.069-3.762,7.863-13.3,9.6-17.827l.049-.34-.35.034c-9.491.942-14.449,5.928-17.048,9.649a74.536,74.536,0,0,0,.963-11.893c0-.048,0-.094,0-.143l.041.054s4.758-.667,9.18-5.739c4.659-5.345,3.486-14.978,3.776-19.8l-.056-.34-.323.135c-8.954,3.709-12.133,10.071-13.44,14.385a79.149,79.149,0,0,0-2.163-10.137,16.733,16.733,0,0,0,6.972-7.887c2.959-6.4-.9-15.335-1.988-20.047l-.148-.311-.274.215c-7.04,5.578-8.6,12.014-8.812,16.507q-1.655-3.6-3.667-7.031l.049.022s3.657-2.863,4.791-9.263c1.2-6.743-4.682-14.262-6.89-18.45l-.218-.257-.2.269c-5.449,7.21-5.1,13.887-4.081,18.165q-1.232-1.546-2.552-3.042c-.146-2.253-1.321-5.042-4.013-8-2.957-3.251-8.633-7.877-18.529-7.3l-.342.02.1.319c2.393,4.089,5.649,13,12.092,15.691a18.161,18.161,0,0,0,8.522,1.469q1.476,1.685,2.842,3.44l-.251-.1a22.328,22.328,0,0,0-19.888,1.867l-.3.171.241.237c4.056,2.55,11.152,8.99,18.141,8.48a18.315,18.315,0,0,0,7.771-2.248,77.025,77.025,0,0,1,4.311,8.518c-.233-.175-.475-.352-.726-.524-3.723-2.584-10.487-5.934-20.24-3.137l-.337.1.179.3c3.354,3.551,8.707,11.723,15.78,12.968a18.789,18.789,0,0,0,8.651-.378,75.966,75.966,0,0,1,2.136,10.119c-.019-.022-.033-.042-.049-.064-2.844-3.488-8.394-8.536-18.562-8.484l-.35,0,.086.334c2.216,4.318,5.044,13.62,11.487,16.728a18.841,18.841,0,0,0,8.135,1.977c0,.064,0,.129,0,.193a71.546,71.546,0,0,1-1.045,12.183c-.039-.1-.072-.2-.113-.3-1.661-4.155-5.437-10.577-15.163-13.459l-.335-.1-.019.342c.813,4.766.7,14.467,5.912,19.3a18.547,18.547,0,0,0,7.246,4.256,77.044,77.044,0,0,1-4.4,10.78c-.006-.342-.019-.691-.043-1.051-.28-4.451-1.858-11.691-10.218-17.343l-.292-.195-.123.322c-.72,4.78-3.869,13.981-.418,20.136a17.871,17.871,0,0,0,6.207,6.633,88.947,88.947,0,0,1-7.211,9.512c.066-.293.128-.591.183-.9.838-4.571,1.066-12.279-5.97-20.005l-.243-.267-.208.293c-1.93,4.662-7.437,13.218-5.495,20.277a18.4,18.4,0,0,0,4.486,8.08c-.387.358-.77.715-1.161,1.069-2.8,2.518-5.579,4.762-8.32,6.78.088-.215.179-.43.261-.655,1.739-4.605,3.431-12.589-2.43-21.9l-.2-.324-.274.271c-2.891,4.505-10.24,12.418-9.553,20.114a19.521,19.521,0,0,0,2.78,8.66,100.14,100.14,0,0,1-11.72,5.767c.36-.392.722-.808,1.078-1.258a22.117,22.117,0,0,0,4.18-20.16l-.086-.342-.319.165c-3.881,3.211-12.712,8.22-14.331,15.261a17.492,17.492,0,0,0,.317,9.669c-4.235,1.35-8.184,2.379-11.769,3.313l-.086.02-.086-.02c-3.587-.936-7.536-1.965-11.769-3.313a17.514,17.514,0,0,0,.317-9.669c-1.62-7.041-10.452-12.05-14.331-15.261l-.321-.165-.086.342a22.1,22.1,0,0,0,4.182,20.16c.356.45.718.866,1.078,1.258a100,100,0,0,1-11.722-5.767,19.514,19.514,0,0,0,2.778-8.66c.687-7.7-6.659-15.609-9.553-20.114l-.27-.271-.2.324c-5.861,9.309-4.169,17.291-2.435,21.9.086.225.175.44.263.653-2.741-2.015-5.517-4.26-8.318-6.778-.393-.354-.778-.711-1.165-1.069a18.359,18.359,0,0,0,4.486-8.08c1.943-7.059-3.562-15.615-5.495-20.277l-.208-.293-.235.267c-7.036,7.726-6.812,15.434-5.972,20.005.056.305.119.6.183.9a88.925,88.925,0,0,1-7.209-9.512,17.869,17.869,0,0,0,6.2-6.633c3.453-6.155.3-15.358-.418-20.136l-.123-.321-.288.195c-8.359,5.65-9.94,12.892-10.22,17.343-.023.362-.035.711-.041,1.051a77.3,77.3,0,0,1-4.4-10.78,18.547,18.547,0,0,0,7.246-4.256c5.217-4.831,5.1-14.532,5.912-19.3l-.016-.342-.337.1c-9.73,2.883-13.5,9.3-15.163,13.459-.041.1-.074.2-.113.3A71.8,71.8,0,0,1,24.83,90.425c0-.064,0-.129,0-.193a18.853,18.853,0,0,0,8.135-1.977c6.443-3.108,9.269-12.41,11.489-16.728l.086-.334-.352,0c-10.166-.052-15.714,5-18.56,8.484l-.049.066A76.055,76.055,0,0,1,27.715,69.62,18.8,18.8,0,0,0,36.369,70c7.075-1.246,12.428-9.42,15.782-12.968l.177-.3-.337-.1c-9.755-2.8-16.517.551-20.24,3.137-.251.173-.492.35-.726.524a76.663,76.663,0,0,1,4.311-8.518,18.354,18.354,0,0,0,7.771,2.248c6.989.51,14.086-5.93,18.14-8.48l.243-.237-.294-.171a22.315,22.315,0,0,0-19.888-1.867c-.086.032-.167.066-.253.1q1.368-1.754,2.84-3.44a18.157,18.157,0,0,0,8.522-1.469c6.443-2.693,9.7-11.6,12.092-15.691l.1-.319-.344-.02c-9.894-.579-15.572,4.047-18.529,7.3-2.692,2.956-3.863,5.745-4.011,8q-1.318,1.495-2.554,3.042c1.019-4.278,1.371-10.955-4.079-18.165l-.2-.269-.218.257c-2.208,4.188-8.086,11.707-6.89,18.45,1.136,6.4,4.791,9.263,4.791,9.263l.051-.022a78.72,78.72,0,0,0-3.667,7.031c-.208-4.491-1.772-10.929-8.812-16.507l-.272-.215-.15.313c-1.091,4.712-4.947,13.652-1.986,20.047a16.71,16.71,0,0,0,6.972,7.887A78.794,78.794,0,0,0,22.55,78.98C21.241,74.668,18.06,68.3,9.106,64.595l-.323-.135-.056.34c.288,4.822-.885,14.455,3.774,19.8,4.422,5.074,9.178,5.739,9.178,5.739l.043-.054c0,.048,0,.094,0,.143a74.749,74.749,0,0,0,.961,11.891c-2.6-3.721-7.557-8.7-17.048-9.647l-.35-.034.049.34c1.735,4.523,3.529,14.066,9.6,17.827,5.528,3.426,10.108,2.889,10.471,2.839a80.015,80.015,0,0,0,3.673,9.315c-3.708-2.664-9.82-5.52-18.69-3.677l-.344.07.154.309c3.068,3.788,7.767,12.336,14.722,14.1a17.935,17.935,0,0,0,10.127-.137,91.568,91.568,0,0,0,6.357,8.546c-4.406-1.875-11.454-3.482-20.194.617l-.331.157.235.275c4.06,3.1,10.969,10.617,18.453,10.738a18.283,18.283,0,0,0,10.473-2.743c.368.338.731.677,1.105,1.015,2.574,2.313,5.126,4.4,7.651,6.3a25.132,25.132,0,0,0-21.468,4.147l-.313.219.3.243c4.809,2.49,13.422,9.074,21.234,7.851,7.417-1.167,10.777-5.152,10.777-5.152l-.095-.225c-.029-.07-.064-.137-.095-.209a101.692,101.692,0,0,0,9.732,4.977,23.158,23.158,0,0,0-16.675,9.53l-.214.285.333.135c5,.886,14.576,4.366,21.176,1.117A18.115,18.115,0,0,0,91,174.967c2.367.752,4.649,1.407,6.826,2-6.264,1.788-11.3,3.762-14.708,7.531l2.33,2.011c3.684-4.069,10.125-5.857,18.276-7.985,8.151,2.128,14.593,3.914,18.276,7.985l2.332-2.011c-3.412-3.77-8.446-5.743-14.708-7.531,2.179-.595,4.462-1.25,6.828-2a18.1,18.1,0,0,0,7.513,6.488c6.6,3.249,16.171-.229,21.174-1.117l.333-.135-.214-.285a23.148,23.148,0,0,0-16.677-9.53,101.625,101.625,0,0,0,9.73-4.975c-.031.068-.066.135-.095.207l-.093.225s3.361,3.985,10.775,5.152c7.812,1.222,16.424-5.361,21.234-7.851l.3-.243-.315-.219a25.12,25.12,0,0,0-21.466-4.147c2.523-1.9,5.077-3.989,7.651-6.3.373-.338.735-.677,1.1-1.015a18.288,18.288,0,0,0,10.473,2.743c7.485-.121,14.393-7.642,18.453-10.738l.235-.275-.329-.157c-8.742-4.1-15.79-2.49-20.2-.617a91.234,91.234,0,0,0,6.359-8.546,17.918,17.918,0,0,0,10.127.137c6.958-1.768,11.654-10.316,14.724-14.1l.152-.309-.344-.07c-8.87-1.843-14.98,1.013-18.688,3.677a80.228,80.228,0,0,0,3.671-9.315C182.411,113.692,186.994,114.228,192.517,110.8ZM49.924,127.687c-.611,8.7-.836,14.343-1.334,17.829-.068-.068-.138-.139-.2-.209C48.249,142.261,48.066,133.651,49.924,127.687Zm-9.236-16.139c-2.636,8.12-4.165,13.384-5.451,16.509-.039-.066-.08-.133-.117-.2C35.647,125.191,37.486,116.834,40.688,111.548ZM36.9,94.36C32.189,100.836,29.17,105.232,27,107.9c-.033-.131-.066-.263-.1-.392C28.584,104.593,32.6,98.087,36.9,94.36Zm1.564-19.131C32.08,80,27.892,83.3,25.011,85.233c.01-.143.016-.287.027-.428C27.584,82.464,33.307,77.515,38.468,75.228Zm6.878-16.262c-7.816,2.98-12.88,5.078-16.192,6.113.037-.1.076-.2.111-.307C32.1,63.327,39.441,59.813,45.345,58.967Zm9-13.212c-7.789.91-12.987,1.658-16.383,1.881.078-.115.154-.229.233-.344C41.507,46.563,48.842,45.174,54.343,45.755Zm4.136-19.688c-6.487,4.316-10.746,7.322-13.656,9.048l-.214-.2C47.058,32.883,53.141,28.1,58.479,26.067ZM35.136,29.33c1.344,6.325.07,15.464-.206,17.275-.021.032-.043.064-.066.1C34.628,43.472,34.937,38.041,35.136,29.33ZM21.955,47.477c2.745,5.445,3.935,13.784,4.27,16.581-.039.107-.072.213-.109.322C25.073,61.173,23.958,55.8,21.955,47.477ZM12.73,70.51c4.733,5.078,8.6,14.252,9.119,15.518,0,.018,0,.04,0,.058C19.9,83.374,17.261,78.4,12.73,70.51ZM10.89,97.275c5.779,3.328,11.93,10.441,13.249,12.008l.037.141C21.5,107.362,17.494,103.4,10.89,97.275Zm5.943,24.82c5.657,1.246,12.467,5.1,15.338,6.834.082.143.161.285.241.428C29.191,128.073,24.326,125.617,16.833,122.095Zm11.611,22c6.39-.1,14.831,2.441,17.784,3.406.086.088.175.175.261.261C42.927,147.282,37.274,145.93,28.444,144.091ZM45.1,162.732c8.17-1.555,20.342.522,20.342.522C61.741,163.5,55.4,163.078,45.1,162.732Zm35.085-8.879c3.764,8.343,6.3,13.5,7.415,16.746l-.107-.04C86.426,168.809,81.48,160.49,80.188,153.853ZM64.359,141.785c.961,8.749,1.766,14.54,1.961,18.283-.119-.078-.239-.153-.358-.231C65.18,156.288,63.6,147.972,64.359,141.785Zm4.764,36.028c5.011-2.674,12.5-4.2,16.134-4.822.189.072.385.145.574.213C82.427,174.322,77.064,175.639,69.123,177.813Zm93.228-15.08c-10.3.348-16.64.774-20.345.522C142.008,163.253,154.18,161.175,162.35,162.732Zm-19.256-20.948c.763,6.187-.819,14.5-1.6,18.05-.121.078-.241.153-.358.231C141.329,156.325,142.133,150.531,143.094,141.785Zm-15.829,12.068c-1.292,6.639-6.235,14.956-7.308,16.706l-.107.04C120.968,167.35,123.5,162.2,127.265,153.853Zm11.063,23.96c-7.939-2.174-13.3-3.49-16.706-4.609.189-.068.385-.141.572-.213C125.824,173.613,133.319,175.138,138.328,177.813Zm58.235-80.537c-6.6,6.125-10.609,10.087-13.284,12.149.01-.046.023-.094.037-.141C184.631,107.72,190.784,100.6,196.563,97.275Zm-1.84-26.765c-4.532,7.887-7.172,12.866-9.115,15.577,0-.02,0-.04,0-.058C186.125,84.763,189.992,75.588,194.723,70.51ZM185.5,47.477c-2.006,8.323-3.122,13.7-4.161,16.9-.039-.107-.072-.215-.111-.322C181.563,61.257,182.75,52.922,185.5,47.477ZM172.317,29.33c.2,8.711.508,14.142.272,17.373-.023-.034-.043-.066-.066-.1C172.245,44.791,170.975,35.656,172.317,29.33Zm-23.345-3.263c5.338,2.029,11.421,6.818,13.87,8.851l-.214.2C159.72,33.387,155.46,30.383,148.972,26.067Zm4.138,19.688c5.5-.581,12.833.808,16.153,1.537.078.115.152.231.23.344C166.1,47.413,160.9,46.665,153.11,45.755Zm9,13.212c5.906.846,13.247,4.358,16.078,5.805.039.1.076.2.113.307C174.988,64.044,169.923,61.949,162.105,58.967Zm6.882,16.262c5.159,2.287,10.882,7.236,13.426,9.575.012.143.019.287.027.43C179.563,83.3,175.373,80,168.987,75.228Zm1.564,19.131c4.3,3.725,8.318,10.234,10,13.143-.033.131-.064.263-.095.394C178.283,105.232,175.264,100.836,170.551,94.36Zm-3.785,17.188c3.2,5.287,5.04,13.642,5.569,16.31-.039.064-.078.129-.119.2C170.93,124.93,169.4,119.668,166.766,111.548Zm-7.7,33.763c-.066.068-.136.137-.206.207-.494-3.486-.722-9.131-1.331-17.829C159.387,133.651,159.2,142.261,159.066,145.311Zm19.943-1.22c-8.833,1.839-14.482,3.191-18.046,3.667l.261-.261C164.182,146.533,172.619,143.987,179.009,144.091Zm11.611-22c-7.493,3.522-12.358,5.978-15.576,7.262.08-.143.158-.285.241-.428C178.153,127.2,184.962,123.341,190.62,122.095Z" transform="translate(-5.284 -22.338)"/>
        </g>
        <g id="Group_450" data-name="Group 450" transform="translate(55.216 27.31)">
          <g id="Group_449" data-name="Group 449" transform="translate(0 0)">
            <g id="Group_447" data-name="Group 447">
              <path id="Path_237" data-name="Path 237" class="cls-2" d="M43.673,0h.384L45.7.8c1.1.54,1.817.887,2.173,1.061s1.555.713,3.6,1.628,3.1,1.381,3.175,1.39.609.229,1.63.658,1.8.741,2.351.951,1.339.485,2.379.832,1.7.576,1.967.668.618.2,1.03.338.937.283,1.583.476,1.47.412,2.463.668,1.967.494,2.9.7,1.545.338,1.817.393,1.143.21,2.613.476,2.388.421,2.763.476,1.283.192,2.735.421,2.182.338,2.2.338.721.128,2.117.393,2.089.393,2.1.4l.019.018-.084,4.152q-.084,4.143-.44,10.718t-.562,9.191c-.14,1.747-.29,3.237-.468,4.481s-.384,2.423-.618,3.539-.487,2.24-.768,3.365-.515,2.122-.731,2.981-.468,1.774-.768,2.753-.468,1.582-.524,1.783-.15.466-.262.777-.253.7-.412,1.171-.4,1.134-.731,2-.609,1.573-.824,2.085-.478,1.143-.8,1.866-.712,1.6-1.208,2.615-.787,1.619-.88,1.783-.459.777-1.068,1.82-.993,1.673-1.115,1.866-.431.686-.908,1.472-.8,1.289-.937,1.5-.375.549-.674,1.006-.553.8-.731,1.061-.4.549-.646.887-.478.658-.7.951-.4.53-.524.722a9.11,9.11,0,0,1-.562.75c-.244.3-.478.613-.7.914s-.468.622-.731.951-.487.6-.674.832-.581.677-1.189,1.326-1.321,1.39-2.145,2.231-1.545,1.555-2.173,2.14-1.04.969-1.246,1.125-.684.558-1.442,1.2-1.218,1.033-1.377,1.171-.581.485-1.236,1.033-1.086.9-1.292,1.061-.44.348-.7.558-.628.5-1.105.878-.824.649-1.068.823-.478.338-.7.476-.637.384-1.236.722-.993.576-1.171.7-.393.247-.628.375a8.383,8.383,0,0,0-.731.448c-.253.165-.44.283-.562.366s-.375.2-.768.393-.862.4-1.414.64-.927.4-1.143.476l-.318.11-.356-.082a4.167,4.167,0,0,1-.768-.274c-.281-.128-.731-.357-1.377-.668A12.009,12.009,0,0,1,40,99.715c-.094-.073-.347-.238-.749-.485s-.7-.439-.908-.558-.609-.357-1.208-.695-1.012-.585-1.236-.722-.459-.293-.7-.476-.524-.384-.834-.631-.731-.567-1.246-.988-.965-.777-1.349-1.088-.937-.768-1.676-1.39-1.208-1.015-1.414-1.171-.656-.53-1.349-1.116-1.086-.914-1.161-.988-.421-.4-1.04-.988-1.049-1.006-1.292-1.253-.787-.8-1.611-1.674-1.33-1.39-1.5-1.591-.412-.485-.731-.86-.581-.686-.768-.914-.375-.476-.562-.722-.384-.512-.59-.777-.393-.512-.562-.722-.309-.4-.421-.567-.281-.384-.487-.658-.384-.512-.524-.722-.347-.494-.59-.832-.431-.613-.562-.8-.337-.5-.618-.914-.468-.7-.562-.86-.337-.558-.731-1.2-.665-1.061-.8-1.253-.45-.732-.955-1.6-.89-1.527-1.143-1.975-.478-.86-.674-1.253-.468-.979-.824-1.756-.524-1.18-.524-1.2-.178-.448-.524-1.28-.628-1.491-.824-1.975-.468-1.216-.824-2.2-.7-2.03-1.058-3.146S4.13,53.241,3.7,51.641s-.731-2.78-.908-3.566-.421-1.911-.731-3.393-.5-2.46-.562-2.926-.187-1.884-.384-4.261S.8,33.324.731,32.117.6,29.629.524,28.276.337,24.7.206,21.618,0,16.36,0,15.071V13.15l.187-.1a4.994,4.994,0,0,1,1.04-.238c.571-.091,1.349-.21,2.351-.366s2.519-.393,4.552-.722S11.623,11.148,12.5,11s2.042-.384,3.493-.7,2.707-.613,3.756-.887,1.967-.54,2.735-.777,1.358-.43,1.789-.558.843-.256,1.236-.393,1.171-.412,2.351-.832,2.276-.86,3.306-1.3,1.573-.658,1.648-.668.562-.219,1.48-.631,1.751-.777,2.5-1.116,1.48-.668,2.2-1.006,1.63-.768,2.707-1.308L43.289,0Z"/>
            </g>
            <g id="Group_448" data-name="Group 448" transform="translate(5.535 6.566)">
              <path id="Path_238" data-name="Path 238" class="cls-3" d="M44.864,7.979H45.2l1.442.7c.965.476,1.592.777,1.9.924s1.358.622,3.156,1.427,2.716,1.216,2.782,1.216.534.2,1.433.576,1.583.649,2.06.832,1.171.421,2.089.732,1.48.5,1.723.585.543.183.9.293.824.256,1.386.412,1.283.357,2.163.585,1.723.43,2.548.613,1.358.293,1.592.338,1,.183,2.295.412,2.1.366,2.416.412,1.124.174,2.4.366,1.911.293,1.929.293.637.11,1.854.338,1.836.348,1.836.357l.009.009-.075,3.64q-.07,3.635-.384,9.392t-.487,8.047c-.122,1.527-.253,2.835-.412,3.932s-.337,2.122-.543,3.1-.431,1.957-.665,2.954-.459,1.866-.646,2.606-.412,1.555-.665,2.414-.412,1.381-.459,1.564-.131.4-.234.686-.225.622-.356,1.024-.356,1-.646,1.756-.534,1.372-.721,1.829-.421,1-.693,1.637-.628,1.4-1.058,2.3-.684,1.417-.768,1.564-.4.677-.937,1.6-.871,1.463-.974,1.637-.375.6-.8,1.289S70.9,73.5,70.77,73.685s-.328.476-.59.878-.478.7-.646.924-.356.476-.562.777-.421.576-.618.832-.356.466-.459.631a7.749,7.749,0,0,1-.487.658c-.215.265-.421.54-.618.8s-.412.549-.646.832-.431.53-.59.732-.515.585-1.04,1.161-1.161,1.216-1.883,1.948-1.358,1.363-1.9,1.875-.918.85-1.1.988-.6.485-1.264,1.052-1.068.905-1.208,1.024-.506.421-1.077.905-.955.786-1.133.924-.384.3-.618.485-.553.439-.965.768-.721.567-.937.722-.421.293-.618.412-.562.329-1.077.631-.871.5-1.03.613a5.75,5.75,0,0,1-.553.329c-.206.11-.421.247-.646.393s-.384.256-.487.32a7.05,7.05,0,0,1-.665.338c-.347.165-.759.347-1.236.558s-.815.348-1,.412l-.281.1-.309-.073a3.484,3.484,0,0,1-.665-.238C22.677,86.451,9.377,63.113,7.542,40.8c-.169-2.085-.281-3.649-.337-4.71s-.112-2.176-.178-3.365-.159-3.128-.281-5.834-.178-4.609-.178-5.734V19.474l.169-.082a4.384,4.384,0,0,1,.918-.21c.5-.082,1.18-.183,2.06-.32s2.2-.338,3.99-.631,3.063-.5,3.831-.631,1.789-.329,3.063-.613,2.37-.54,3.3-.777,1.723-.476,2.4-.686,1.189-.375,1.573-.485.74-.229,1.077-.338,1.03-.357,2.06-.732S33,13.219,33.9,12.835s1.377-.576,1.442-.585.5-.192,1.3-.549,1.536-.686,2.192-.978,1.292-.585,1.929-.878,1.424-.677,2.37-1.143L44.546,8A1.756,1.756,0,0,1,44.864,7.979Z" transform="translate(-6.568 -7.979)"/>
            </g>
          </g>
        </g>
        <g id="Group_460" data-name="Group 460" transform="translate(69.669 49.177)">
          <g id="Group_459" data-name="Group 459" transform="translate(0 0)">
            <g id="Group_453" data-name="Group 453" transform="translate(11.059 29.816)">
              <path id="Path_283" data-name="Path 283" d="M23.5,41.176a4.627,4.627,0,0,0-1.921.417,1.517,1.517,0,0,1,.509,1.128A1.565,1.565,0,0,1,20.5,44.267a1.594,1.594,0,0,1-1.156-.5,4.379,4.379,0,0,0-.425,1.875,4.578,4.578,0,1,0,4.577-4.47Z" transform="translate(-18.92 -41.176)"/>
            </g>
            <g id="Group_454" data-name="Group 454" transform="translate(0 10.132)">
              <path id="Path_284" data-name="Path 284" d="M55.888,28.4a27.176,27.176,0,0,0,5.836-11.143c-5.774,5.973-15.857,9.935-27.34,9.935S12.817,23.229,7.043,17.256a27.194,27.194,0,0,0,5.969,11.292A15.173,15.173,0,0,0,5.8,41.409,15.455,15.455,0,0,0,21.435,56.677,15.716,15.716,0,0,0,34.57,49.69a15.717,15.717,0,0,0,13.136,6.987A15.454,15.454,0,0,0,63.341,41.409,15.188,15.188,0,0,0,55.888,28.4Zm-34.454,23.3a10.289,10.289,0,1,1,0-20.573,10.289,10.289,0,1,1,0,20.573Zm26.271,0A10.289,10.289,0,1,1,58.239,41.409,10.412,10.412,0,0,1,47.7,51.695Z" transform="translate(-5.798 -17.256)"/>
            </g>
            <g id="Group_455" data-name="Group 455" transform="translate(37.327 29.815)">
              <path id="Path_285" data-name="Path 285" d="M57.662,44.266A1.565,1.565,0,0,1,56.08,42.72a1.521,1.521,0,0,1,.508-1.128,4.623,4.623,0,0,0-1.919-.417,4.47,4.47,0,1,0,4.577,4.469,4.344,4.344,0,0,0-.427-1.875A1.585,1.585,0,0,1,57.662,44.266Z" transform="translate(-50.089 -41.175)"/>
            </g>
            <g id="Group_456" data-name="Group 456" transform="translate(24.458 45.664)">
              <path id="Path_286" data-name="Path 286" d="M-.867,4.938-5.517-2.768-.867-7.647,3.782-2.768Z" transform="translate(5.517 7.647)"/>
            </g>
            <g id="Group_457" data-name="Group 457" transform="translate(16.725 10.534)">
              <path id="Path_287" data-name="Path 287" d="M36.346,21.77l-10.7-4.026v6.449A45.993,45.993,0,0,0,37.5,25.715a46.785,46.785,0,0,0,9.543-.97v-7Z" transform="translate(-25.643 -17.745)"/>
            </g>
            <g id="Group_458" data-name="Group 458" transform="translate(8.492)">
              <path id="Path_288" data-name="Path 288" d="M-3.6,5.289-22.868-1.96-3.6-8.191,15.677-1.96Z" transform="translate(22.868 8.191)"/>
            </g>
          </g>
        </g>
      </g>
    </g>
  </g>
</svg>
