<svg id="logo_for_nav" data-name="logo for nav" xmlns="http://www.w3.org/2000/svg" width="205" height="58.07" viewBox="0 0 205 58.07">
  <defs>
    <style>
      .cls-1, .cls-2 {
        fill: #fff;
        stroke: #000;
      }

      .cls-1 {
        opacity: 0.5;
      }

      .cls-2 {
        opacity: 0.81;
      }

      .cls-3 {
        font-size: 21px;
        font-family: Lora-Bold, Lora;
        font-weight: 700;
      }
    </style>
  </defs>
  <g id="Group_498" data-name="Group 498">
    <g id="_13043092" data-name="13043092" transform="translate(0 0)">
      <g id="Group_446" data-name="Group 446">
        <path id="Path_236" data-name="Path 236" d="M71.511,53.63c2.147-1.33,2.781-4.706,3.395-6.306l.017-.12-.124.012a7.948,7.948,0,0,0-6.03,3.413,26.365,26.365,0,0,0,.341-4.207c0-.017,0-.033,0-.05l.015.019a5.851,5.851,0,0,0,3.247-2.03c1.648-1.891,1.233-5.3,1.336-7l-.02-.12-.114.048a7.787,7.787,0,0,0-4.754,5.088,28,28,0,0,0-.765-3.586A5.919,5.919,0,0,0,70.52,36c1.047-2.262-.318-5.424-.7-7.091l-.052-.11-.1.076a7.66,7.66,0,0,0-3.117,5.839q-.585-1.272-1.3-2.487l.017.008a5.5,5.5,0,0,0,1.695-3.277c.423-2.385-1.656-5.045-2.437-6.526l-.077-.091-.072.1a7.4,7.4,0,0,0-1.443,6.425q-.436-.547-.9-1.076a4.846,4.846,0,0,0-1.419-2.829,7.814,7.814,0,0,0-6.554-2.581l-.121.007.037.113c.847,1.446,2,4.6,4.277,5.55a6.424,6.424,0,0,0,3.014.52q.522.6,1.005,1.217l-.089-.035a7.9,7.9,0,0,0-7.035.66l-.1.06.085.084c1.435.9,3.945,3.18,6.417,3a6.478,6.478,0,0,0,2.749-.8,27.245,27.245,0,0,1,1.525,3.013c-.082-.062-.168-.124-.257-.186A8.087,8.087,0,0,0,58.4,34.471l-.119.034.063.1c1.187,1.256,3.08,4.146,5.582,4.587a6.646,6.646,0,0,0,3.06-.134,26.87,26.87,0,0,1,.756,3.579l-.017-.023a8,8,0,0,0-6.566-3h-.124l.031.118c.784,1.527,1.784,4.817,4.063,5.917a6.664,6.664,0,0,0,2.877.7c0,.023,0,.045,0,.068a25.306,25.306,0,0,1-.37,4.309c-.014-.035-.025-.07-.04-.105a7.85,7.85,0,0,0-5.363-4.761l-.119-.036-.007.121c.288,1.686.247,5.117,2.091,6.826a6.56,6.56,0,0,0,2.563,1.505A27.251,27.251,0,0,1,65.21,58.1c0-.121-.007-.244-.015-.372a7.7,7.7,0,0,0-3.614-6.134l-.1-.069-.044.114c-.255,1.691-1.368,4.945-.148,7.122a6.321,6.321,0,0,0,2.2,2.346,31.461,31.461,0,0,1-2.551,3.365c.023-.1.045-.209.065-.317a7.93,7.93,0,0,0-2.112-7.076l-.086-.095-.074.1c-.683,1.649-2.631,4.675-1.944,7.172a6.51,6.51,0,0,0,1.587,2.858c-.137.127-.272.253-.411.378-.991.891-1.973,1.684-2.943,2.4.031-.076.063-.152.092-.232a8.347,8.347,0,0,0-.86-7.745l-.072-.114-.1.1c-1.023,1.594-3.622,4.392-3.379,7.115a6.9,6.9,0,0,0,.983,3.063,35.42,35.42,0,0,1-4.145,2.04c.127-.139.255-.286.381-.445A7.823,7.823,0,0,0,49.4,66.536l-.031-.121-.113.058c-1.373,1.136-4.5,2.908-5.069,5.4a6.187,6.187,0,0,0,.112,3.42c-1.5.478-2.895.842-4.163,1.172l-.031.007-.031-.007c-1.269-.331-2.666-.7-4.163-1.172a6.2,6.2,0,0,0,.112-3.42c-.573-2.49-3.7-4.262-5.069-5.4l-.114-.058-.031.121a7.819,7.819,0,0,0,1.479,7.131c.126.159.254.306.381.445a35.369,35.369,0,0,1-4.146-2.04,6.9,6.9,0,0,0,.983-3.063c.243-2.722-2.356-5.521-3.379-7.115l-.1-.1-.071.114a8.352,8.352,0,0,0-.861,7.745c.031.08.062.156.093.231-.97-.713-1.952-1.507-2.942-2.4-.139-.125-.275-.252-.412-.378a6.494,6.494,0,0,0,1.587-2.858c.687-2.5-1.26-5.523-1.944-7.172l-.074-.1-.083.095a7.929,7.929,0,0,0-2.112,7.076c.02.108.042.214.065.317a31.455,31.455,0,0,1-2.55-3.365,6.321,6.321,0,0,0,2.195-2.346c1.221-2.177.108-5.432-.148-7.122l-.044-.114-.1.069a7.7,7.7,0,0,0-3.615,6.134c-.008.128-.012.252-.015.372a27.342,27.342,0,0,1-1.557-3.813A6.56,6.56,0,0,0,16,52.777c1.845-1.709,1.8-5.14,2.091-6.826l-.006-.121-.119.036a7.849,7.849,0,0,0-5.363,4.761c-.015.036-.026.07-.04.105a25.4,25.4,0,0,1-.37-4.31c0-.023,0-.045,0-.068a6.669,6.669,0,0,0,2.877-.7c2.279-1.1,3.279-4.39,4.064-5.917l.031-.118h-.124a8,8,0,0,0-6.565,3l-.017.023a26.9,26.9,0,0,1,.755-3.58,6.649,6.649,0,0,0,3.061.134c2.5-.441,4.4-3.332,5.582-4.587l.063-.1L21.8,34.47a8.082,8.082,0,0,0-7.159,1.109c-.089.061-.174.124-.257.186a27.117,27.117,0,0,1,1.525-3.013,6.492,6.492,0,0,0,2.749.8c2.472.181,4.983-2.1,6.417-3l.086-.084-.1-.06a7.893,7.893,0,0,0-7.035-.66l-.09.035q.484-.62,1-1.217a6.423,6.423,0,0,0,3.014-.52c2.279-.952,3.431-4.1,4.277-5.55l.037-.113-.122-.007a7.815,7.815,0,0,0-6.554,2.581,4.849,4.849,0,0,0-1.419,2.829q-.466.529-.9,1.076a7.393,7.393,0,0,0-1.443-6.425l-.072-.1-.077.091c-.781,1.481-2.86,4.141-2.437,6.526a5.508,5.508,0,0,0,1.695,3.277l.018-.008a27.843,27.843,0,0,0-1.3,2.487,7.661,7.661,0,0,0-3.117-5.839l-.1-.076-.053.111c-.386,1.667-1.75,4.829-.7,7.091a5.911,5.911,0,0,0,2.466,2.79,27.87,27.87,0,0,0-.765,3.586,7.793,7.793,0,0,0-4.755-5.088l-.114-.048-.02.12c.1,1.706-.313,5.113,1.335,7a5.846,5.846,0,0,0,3.246,2.03l.015-.019c0,.017,0,.033,0,.05a26.44,26.44,0,0,0,.34,4.206,7.946,7.946,0,0,0-6.03-3.412L5.284,47.2l.017.12C5.915,48.924,6.55,52.3,8.7,53.63a5.961,5.961,0,0,0,3.7,1,28.3,28.3,0,0,0,1.3,3.3,8.058,8.058,0,0,0-6.611-1.3l-.122.025.055.109c1.085,1.34,2.747,4.363,5.207,4.989a6.344,6.344,0,0,0,3.582-.048,32.39,32.39,0,0,0,2.249,3.023,8.42,8.42,0,0,0-7.143.218L10.8,65l.083.1c1.436,1.1,3.88,3.756,6.527,3.8a6.467,6.467,0,0,0,3.7-.97c.13.119.258.24.391.359.911.818,1.813,1.557,2.706,2.23a8.89,8.89,0,0,0-7.594,1.467l-.111.077.1.086c1.7.881,4.747,3.21,7.511,2.777A6.455,6.455,0,0,0,27.935,73.1l-.033-.08c-.01-.025-.023-.048-.033-.074a35.968,35.968,0,0,0,3.442,1.761,8.192,8.192,0,0,0-5.9,3.371l-.076.1.118.048c1.77.313,5.156,1.544,7.49.4A6.407,6.407,0,0,0,35.6,76.325c.837.266,1.644.5,2.414.708-2.216.633-4,1.33-5.2,2.664l.824.711c1.3-1.439,3.581-2.072,6.465-2.824,2.883.753,5.162,1.385,6.465,2.824l.825-.711c-1.207-1.333-2.987-2.031-5.2-2.664.771-.21,1.578-.442,2.415-.708a6.4,6.4,0,0,0,2.658,2.295c2.334,1.149,5.72-.081,7.489-.4l.118-.048-.076-.1a8.188,8.188,0,0,0-5.9-3.371,35.944,35.944,0,0,0,3.442-1.76c-.011.024-.023.048-.033.073l-.033.08a6.454,6.454,0,0,0,3.811,1.822c2.763.432,5.809-1.9,7.511-2.777l.106-.086-.111-.077a8.885,8.885,0,0,0-7.593-1.467c.892-.672,1.8-1.411,2.706-2.23.132-.119.26-.24.39-.359a6.469,6.469,0,0,0,3.7.97c2.647-.043,5.091-2.7,6.527-3.8l.083-.1-.116-.055a8.421,8.421,0,0,0-7.144-.218A32.273,32.273,0,0,0,64.394,61.7a6.338,6.338,0,0,0,3.582.048c2.461-.625,4.122-3.649,5.208-4.989l.054-.109-.122-.025a8.057,8.057,0,0,0-6.61,1.3,28.373,28.373,0,0,0,1.3-3.295A5.973,5.973,0,0,0,71.511,53.63ZM21.074,59.6c-.216,3.076-.3,5.073-.472,6.306l-.072-.074A21.015,21.015,0,0,1,21.074,59.6Zm-3.267-5.709c-.932,2.872-1.473,4.734-1.928,5.839-.014-.023-.028-.047-.041-.07A20.458,20.458,0,0,1,17.807,53.893Zm-1.339-6.08c-1.668,2.291-2.735,3.846-3.5,4.788-.012-.046-.023-.093-.034-.139A20.167,20.167,0,0,1,16.468,47.813Zm.553-6.767c-2.259,1.687-3.741,2.856-4.76,3.539,0-.05.006-.1.009-.151A20.446,20.446,0,0,1,17.022,41.046Zm2.433-5.752c-2.765,1.054-4.556,1.8-5.727,2.162.013-.037.027-.072.039-.109A21.273,21.273,0,0,1,19.454,35.294Zm3.182-4.673c-2.755.322-4.594.586-5.795.665l.082-.122A20.452,20.452,0,0,1,22.637,30.621ZM24.1,23.657c-2.294,1.527-3.8,2.59-4.83,3.2l-.076-.07A20.324,20.324,0,0,1,24.1,23.657Zm-8.257,1.154a20.349,20.349,0,0,1-.073,6.11l-.023.035C15.663,29.813,15.773,27.892,15.843,24.811ZM11.181,31.23a20.377,20.377,0,0,1,1.51,5.865c-.014.038-.025.075-.039.114C12.284,36.074,11.889,34.174,11.181,31.23ZM7.918,39.377a21.437,21.437,0,0,1,3.225,5.489c0,.006,0,.014,0,.021C10.455,43.927,9.521,42.166,7.918,39.377Zm-.651,9.467a21.629,21.629,0,0,1,4.686,4.247l.013.05C11.019,52.412,9.6,51.011,7.267,48.844Zm2.1,8.779a20.962,20.962,0,0,1,5.425,2.417c.029.05.057.1.085.151C13.74,59.738,12.019,58.869,9.369,57.623Zm4.107,7.78a22.512,22.512,0,0,1,6.291,1.2l.092.092C18.6,66.532,16.6,66.054,13.476,65.4ZM19.368,72a25.327,25.327,0,0,1,7.2.185C25.254,72.27,23.012,72.12,19.368,72Zm12.41-3.141c1.331,2.951,2.227,4.775,2.623,5.923l-.038-.014A21.676,21.676,0,0,1,31.779,68.857Zm-5.6-4.269c.34,3.095.625,5.143.694,6.467l-.127-.082A21.732,21.732,0,0,1,26.18,64.588Zm1.685,12.744a21.218,21.218,0,0,1,5.707-1.706l.2.075C32.571,76.1,30.674,76.562,27.865,77.331ZM60.84,72c-3.644.123-5.886.274-7.2.185A25.278,25.278,0,0,1,60.84,72Zm-6.811-7.409a21.727,21.727,0,0,1-.566,6.385l-.127.082C53.4,69.731,53.689,67.682,54.029,64.588Zm-5.6,4.269a21.643,21.643,0,0,1-2.585,5.909l-.038.014C46.2,73.631,47.1,71.808,48.43,68.857Zm3.913,8.475c-2.808-.769-4.706-1.235-5.909-1.63l.2-.075A21.236,21.236,0,0,1,52.344,77.331Zm20.6-28.487c-2.336,2.166-3.752,3.568-4.7,4.3,0-.016.008-.033.013-.05A21.622,21.622,0,0,1,72.942,48.844Zm-.651-9.467c-1.6,2.79-2.537,4.551-3.224,5.51,0-.007,0-.014,0-.021A21.428,21.428,0,0,1,72.291,39.377ZM69.029,31.23c-.71,2.944-1.1,4.844-1.472,5.979-.014-.038-.025-.076-.039-.114A20.324,20.324,0,0,1,69.029,31.23Zm-4.663-6.419c.071,3.081.18,5,.1,6.145l-.023-.035A20.351,20.351,0,0,1,64.366,24.811Zm-8.257-1.154a20.346,20.346,0,0,1,4.906,3.131l-.076.07C59.91,26.246,58.4,25.184,56.108,23.657Zm1.464,6.964a20.46,20.46,0,0,1,5.713.544c.028.041.054.082.082.122C62.166,31.207,60.327,30.943,57.572,30.621Zm3.182,4.673a21.223,21.223,0,0,1,5.687,2.053c.014.036.027.072.04.109C65.311,37.09,63.519,36.349,60.754,35.294Zm2.434,5.752a20.454,20.454,0,0,1,4.749,3.387c0,.05.007.1.009.152C66.929,43.9,65.447,42.733,63.188,41.046Zm.553,6.767a20.153,20.153,0,0,1,3.537,4.649c-.012.046-.023.093-.033.139C66.476,51.659,65.408,50.1,63.741,47.813ZM62.4,53.893a20.5,20.5,0,0,1,1.97,5.769l-.042.07C63.875,58.626,63.334,56.765,62.4,53.893ZM59.679,65.835l-.073.073c-.175-1.233-.255-3.23-.471-6.306A21.039,21.039,0,0,1,59.679,65.835Zm7.054-.431c-3.124.65-5.122,1.129-6.383,1.3l.092-.092A22.523,22.523,0,0,1,66.733,65.4Zm4.107-7.78c-2.65,1.246-4.371,2.114-5.51,2.569.028-.05.056-.1.085-.151A20.945,20.945,0,0,1,70.84,57.623Z" transform="translate(-5.284 -22.338)"/>
      </g>
      <g id="Group_450" data-name="Group 450" transform="translate(19.531 9.66)">
        <g id="Group_449" data-name="Group 449" transform="translate(0 0)">
          <g id="Group_447" data-name="Group 447">
            <path id="Path_237" data-name="Path 237" class="cls-1" d="M15.448,0h.136l.583.285c.388.191.643.314.769.375s.55.252,1.272.576,1.1.488,1.123.492.215.081.576.233.636.262.832.336.474.171.841.294.6.2.7.236l.364.12c.146.045.331.1.56.168s.52.146.871.236.7.175,1.027.246.547.12.643.139.4.074.924.168.845.149.977.168.454.068.967.149.772.12.779.12.255.045.749.139.739.139.742.142l.007.006L30.855,6.1q-.03,1.465-.156,3.791t-.2,3.251c-.05.618-.1,1.145-.166,1.585s-.136.857-.219,1.252-.172.792-.272,1.19-.182.75-.258,1.054-.166.628-.272.974-.166.56-.186.631-.053.165-.093.275-.089.249-.146.414-.142.4-.258.708-.215.556-.292.737-.169.4-.282.66-.252.566-.427.925-.278.573-.311.631-.162.275-.378.644-.351.592-.394.66-.152.243-.321.521-.282.456-.331.53-.133.194-.239.356-.2.285-.258.375-.142.194-.229.314-.169.233-.248.336-.142.188-.186.256a3.223,3.223,0,0,1-.2.265c-.086.107-.169.217-.248.323s-.166.22-.258.336-.172.213-.239.294-.205.239-.421.469-.467.492-.759.789-.547.55-.769.757-.368.343-.441.4-.242.2-.51.424-.431.366-.487.414-.205.171-.437.366-.384.317-.457.375-.156.123-.248.2-.222.178-.391.311-.292.23-.378.291-.169.12-.248.168-.225.136-.437.256-.351.2-.414.246-.139.087-.222.133a2.964,2.964,0,0,0-.258.159c-.089.058-.156.1-.2.129s-.133.071-.272.139-.3.142-.5.226-.328.142-.4.168l-.113.039-.126-.029a1.473,1.473,0,0,1-.272-.1c-.1-.045-.258-.126-.487-.236a4.249,4.249,0,0,1-.394-.207c-.033-.026-.123-.084-.265-.171s-.248-.155-.321-.2-.215-.126-.427-.246-.358-.207-.437-.256-.162-.1-.248-.168-.186-.136-.295-.223-.258-.2-.441-.349-.341-.275-.477-.385-.331-.272-.593-.492-.427-.359-.5-.414-.232-.188-.477-.395-.384-.323-.411-.349l-.368-.349c-.219-.207-.371-.356-.457-.443s-.278-.285-.57-.592-.47-.492-.53-.563-.146-.171-.258-.3-.205-.243-.272-.323-.133-.168-.2-.256-.136-.181-.209-.275-.139-.181-.2-.256-.109-.142-.149-.2-.1-.136-.172-.233-.136-.181-.186-.256-.123-.175-.209-.294-.152-.217-.2-.285-.119-.178-.219-.323-.166-.249-.2-.3-.119-.2-.258-.424-.235-.375-.282-.443-.159-.259-.338-.566-.315-.54-.4-.7-.169-.3-.239-.443-.166-.346-.292-.621-.186-.417-.186-.424S2.8,22.591,2.68,22.3s-.222-.527-.292-.7-.166-.43-.292-.78-.248-.718-.374-1.113-.262-.873-.414-1.439S1.05,17.283.987,17s-.149-.676-.258-1.2-.176-.87-.2-1.035S.464,14.1.394,13.262s-.113-1.475-.136-1.9S.212,10.48.186,10,.119,8.737.073,7.647,0,5.787,0,5.331V4.651l.066-.036a1.767,1.767,0,0,1,.368-.084L1.265,4.4c.354-.052.891-.139,1.61-.256l1.547-.256c.311-.052.722-.136,1.236-.246s.957-.217,1.328-.314.7-.191.967-.275.48-.152.633-.2.3-.091.437-.139.414-.146.832-.294.805-.3,1.169-.459.557-.233.583-.236.2-.078.523-.223.619-.275.885-.395.523-.236.779-.356.576-.272.957-.463L15.312,0Z"/>
          </g>
          <g id="Group_448" data-name="Group 448" transform="translate(1.958 2.322)">
            <path id="Path_238" data-name="Path 238" class="cls-2" d="M20.114,7.979h.119l.51.249c.341.168.563.275.672.327s.48.22,1.116.5.961.43.984.43.189.071.507.2.56.23.729.294.414.149.739.259l.61.207c.086.029.192.065.318.1s.292.091.49.146.454.126.765.207.61.152.9.217.48.1.563.12.354.065.812.146.742.129.855.146.4.061.848.129.676.1.682.1.225.039.656.12.649.123.649.126l0,0-.026,1.287q-.025,1.286-.136,3.322t-.172,2.846c-.043.54-.089,1-.146,1.391s-.119.75-.192,1.1-.152.692-.235,1.045-.162.66-.229.922-.146.55-.235.854-.146.488-.162.553-.046.142-.083.243-.08.22-.126.362-.126.353-.229.621-.189.485-.255.647-.149.353-.245.579-.222.495-.374.812-.242.5-.272.553-.142.239-.331.566l-.345.579c-.04.061-.133.213-.282.456s-.245.4-.292.466-.116.168-.209.311-.169.249-.229.327-.126.168-.2.275-.149.2-.219.294-.126.165-.162.223a2.742,2.742,0,0,1-.172.233c-.076.094-.149.191-.219.285s-.146.194-.229.294-.152.188-.209.259-.182.207-.368.411-.411.43-.666.689-.48.482-.673.663-.325.3-.388.349-.212.171-.447.372-.378.32-.427.362-.179.149-.381.32-.338.278-.4.327l-.219.171c-.083.065-.2.155-.341.272s-.255.2-.331.256-.149.1-.219.146-.2.116-.381.223-.308.178-.364.217a2.035,2.035,0,0,1-.2.116c-.073.039-.149.087-.229.139s-.136.091-.172.113a2.494,2.494,0,0,1-.235.12c-.123.058-.268.123-.437.2s-.288.123-.354.146l-.1.036-.109-.026a1.232,1.232,0,0,1-.235-.084c-7.494-3.519-12.2-11.774-12.847-19.667-.06-.737-.1-1.291-.119-1.666s-.04-.77-.063-1.19-.056-1.106-.1-2.064-.063-1.63-.063-2.028v-.6l.06-.029a1.55,1.55,0,0,1,.325-.074c.176-.029.417-.065.729-.113s.779-.12,1.411-.223l1.355-.223c.272-.045.633-.116,1.083-.217s.838-.191,1.166-.275.61-.168.848-.243.421-.133.557-.171.262-.081.381-.12.364-.126.729-.259.706-.265,1.024-.4.487-.2.51-.207.176-.068.46-.194.543-.243.775-.346.457-.207.682-.311.5-.239.838-.4l.5-.249A.621.621,0,0,1,20.114,7.979Z" transform="translate(-6.568 -7.979)"/>
          </g>
        </g>
      </g>
      <g id="Group_460" data-name="Group 460" transform="translate(24.643 17.394)">
        <g id="Group_459" data-name="Group 459" transform="translate(0 0)">
          <g id="Group_453" data-name="Group 453" transform="translate(3.912 10.546)">
            <path id="Path_283" data-name="Path 283" d="M20.539,41.176a1.637,1.637,0,0,0-.68.147.537.537,0,0,1,.18.4.553.553,0,0,1-.56.547.564.564,0,0,1-.409-.175,1.549,1.549,0,0,0-.15.663,1.619,1.619,0,1,0,1.619-1.581Z" transform="translate(-18.92 -41.176)"/>
          </g>
          <g id="Group_454" data-name="Group 454" transform="translate(0 3.584)">
            <path id="Path_284" data-name="Path 284" d="M23.515,21.2a9.612,9.612,0,0,0,2.064-3.941c-2.042,2.113-5.609,3.514-9.671,3.514s-7.629-1.4-9.671-3.514A9.619,9.619,0,0,0,8.35,21.25,5.367,5.367,0,0,0,5.8,25.8a5.467,5.467,0,0,0,5.531,5.4,5.559,5.559,0,0,0,4.646-2.471A5.559,5.559,0,0,0,20.621,31.2a5.466,5.466,0,0,0,5.531-5.4A5.372,5.372,0,0,0,23.515,21.2Zm-12.187,8.24A3.639,3.639,0,1,1,15.055,25.8,3.683,3.683,0,0,1,11.329,29.437Zm9.292,0A3.639,3.639,0,1,1,24.347,25.8,3.683,3.683,0,0,1,20.621,29.437Z" transform="translate(-5.798 -17.256)"/>
          </g>
          <g id="Group_455" data-name="Group 455" transform="translate(13.203 10.546)">
            <path id="Path_285" data-name="Path 285" d="M52.768,42.268a.553.553,0,0,1-.56-.547.538.538,0,0,1,.18-.4,1.635,1.635,0,0,0-.679-.147,1.581,1.581,0,1,0,1.619,1.581,1.537,1.537,0,0,0-.151-.663A.56.56,0,0,1,52.768,42.268Z" transform="translate(-50.089 -41.175)"/>
          </g>
          <g id="Group_456" data-name="Group 456" transform="translate(8.651 16.152)">
            <path id="Path_286" data-name="Path 286" d="M-3.872-3.2-5.517-5.921l1.645-1.726,1.645,1.726Z" transform="translate(5.517 7.647)"/>
          </g>
          <g id="Group_457" data-name="Group 457" transform="translate(5.916 3.726)">
            <path id="Path_287" data-name="Path 287" d="M29.429,19.169l-3.786-1.424v2.281a16.268,16.268,0,0,0,4.2.538,16.548,16.548,0,0,0,3.376-.343V17.745Z" transform="translate(-25.643 -17.745)"/>
          </g>
          <g id="Group_458" data-name="Group 458" transform="translate(3.004)">
            <path id="Path_288" data-name="Path 288" d="M-16.051-3.423l-6.817-2.564,6.817-2.2,6.817,2.2Z" transform="translate(22.868 8.191)"/>
          </g>
        </g>
      </g>
    </g>
  </g>
  <text id="LANGUAGE_PURPOSE" data-name="LANGUAGE 
PURPOSE" class="cls-3" transform="translate(83 21)"><tspan x="0" y="0">LANGUAGE </tspan><tspan x="0" y="27">PURPOSE</tspan></text>
</svg>
