<svg xmlns="http://www.w3.org/2000/svg" width="1920" height="862.682" viewBox="0 0 1920 862.682">
  <g id="Reviews_4" data-name="Reviews 4" transform="translate(-6340 -20954.479)">
    <path id="Path_224" data-name="Path 224" d="M0,0H1920V862.682H0Z" transform="translate(6340 20954.479)" fill="#f0f5f9"/>
    <text id="معلم_عزیزم_خواستم_با_تمام_وجود_از_زحماتی_که_در_طول_این_یکسال_برای_من_کشیدی_قدر_دانی_کنم..به_لطف_شما_من_الان_در_یک_کشور_غریب_میتوانم_مشکلاتم_را_برطرف_کنم_و_به_راحتی_صحبت_کنم.با_تشکر_احسان_راد_" data-name="معلم عزیزم خواستم با تمام وجود از زحماتی که در طول این یکسال برای من کشیدی قدر دانی کنم..به لطف شما من الان در یک کشور غریب میتوانم مشکلاتم را برطرف کنم و به راحتی صحبت کنم.با تشکر

احسان راد

" transform="translate(6480 21167.479)" font-size="24" font-family="Lora"><tspan x="0" y="26"> </tspan><tspan y="26"> </tspan><tspan y="26"> </tspan><tspan y="26"> </tspan><tspan y="26"> </tspan><tspan y="26"> </tspan><tspan y="26"> </tspan><tspan y="26"> </tspan><tspan y="26"> </tspan><tspan y="26"> </tspan><tspan y="26"> </tspan><tspan y="26"> </tspan><tspan y="26"> </tspan><tspan y="26"> </tspan><tspan y="26" font-family="SegoeUI, Segoe UI">معلم عزیزم خواستم با تمام وجود از زحماتی که در طول این</tspan><tspan y="26"> </tspan><tspan x="0" y="76"> </tspan><tspan y="76"> </tspan><tspan y="76"> </tspan><tspan y="76"> </tspan><tspan y="76"> </tspan><tspan y="76"> </tspan><tspan y="76"> </tspan><tspan y="76"> </tspan><tspan y="76"> </tspan><tspan y="76">..</tspan><tspan y="76"> </tspan><tspan y="76"> </tspan><tspan y="76"> </tspan><tspan y="76" font-family="SegoeUI, Segoe UI">کشیدی قدر دانی کنم..به لطف شما من الان در یک کشو</tspan><tspan y="76"> </tspan><tspan x="0" y="126"> </tspan><tspan y="126">.</tspan><tspan y="126"> </tspan><tspan y="126"> </tspan><tspan y="126"> </tspan><tspan y="126"> </tspan><tspan y="126"> </tspan><tspan y="126"> </tspan><tspan y="126"> </tspan><tspan y="126"> </tspan><tspan y="126" font-family="SegoeUI, Segoe UI">مشکلاتم را برطرف کنم و به راحتی صحبت ک</tspan><tspan y="126"></tspan><tspan x="0" y="176"></tspan><tspan x="0" y="226"> </tspan><tspan y="226" font-family="SegoeUI, Segoe UI">احسان را</tspan><tspan y="226"></tspan><tspan x="0" y="276"></tspan><tspan x="0" y="326"></tspan></text>
    <text id="أستاذتي_الفاضلة_اسفتلانا_لياجونوفا_شكرا_لك_على_كل_مابذلته_لي_وما_وجدته_منك_من_تكريم_وتقدير_إبان_فترة_دراستي_اللغة_الروسية_وما_لامسته_من_عمل_جبار_تقومين_به._كنت_مميزة_دائما_بأخلاقك_الرائعة_شخصيتك_القوية_شرحك_المبسط_ممازحتك_و_خبرتك_في_توصيل_المعلومة._شكرا" data-name="أستاذتي الفاضلة اسفتلانا لياجونوفا شكرا لك على كل مابذلته لي وما وجدته منك من تكريم وتقدير إبان فترة دراستي اللغة الروسية وما لامسته من عمل جبار تقومين به.
كنت مميزة دائما بأخلاقك الرائعة، شخصيتك القوية، شرحك المبسط، ممازحتك و خبرتك في توصيل المعلومة.
شكرا" transform="translate(7356 21167.479)" font-size="24" font-family="Lora"><tspan x="0" y="26"> </tspan><tspan y="26"> </tspan><tspan y="26"> </tspan><tspan y="26"> </tspan><tspan y="26"> </tspan><tspan y="26"> </tspan><tspan y="26"> </tspan><tspan y="26"> </tspan><tspan y="26"> </tspan><tspan y="26"> </tspan><tspan y="26"> </tspan><tspan y="26" font-family="SegoeUI, Segoe UI">أستاذتي الفاضلة اسفتلانا لياجونوفا شكرا لك على كل مابذلته ل</tspan><tspan y="26"> </tspan><tspan x="0" y="76"> </tspan><tspan y="76"> </tspan><tspan y="76"> </tspan><tspan y="76"> </tspan><tspan y="76"> </tspan><tspan y="76"> </tspan><tspan y="76"> </tspan><tspan y="76"> </tspan><tspan y="76"> </tspan><tspan y="76"> </tspan><tspan y="76"> </tspan><tspan y="76"> </tspan><tspan y="76"> </tspan><tspan y="76" font-family="SegoeUI, Segoe UI">منك من تكريم وتقدير إبان فترة دراستي اللغة الروسية وما لامست</tspan><tspan y="76"> </tspan><tspan x="0" y="126"> </tspan><tspan y="126" font-family="SegoeUI, Segoe UI">تقومين ب</tspan><tspan y="126">.</tspan><tspan x="0" y="176"> </tspan><tspan y="176"> </tspan><tspan y="176"> </tspan><tspan y="176"> </tspan><tspan y="176"> </tspan><tspan y="176"> </tspan><tspan y="176"> </tspan><tspan y="176"> </tspan><tspan y="176"> </tspan><tspan y="176"> </tspan><tspan y="176" font-family="SegoeUI, Segoe UI">كنت مميزة دائما بأخلاقك الرائعة، شخصيتك القوية، شرحك المبسط،</tspan><tspan y="176"> </tspan><tspan x="0" y="226"> </tspan><tspan y="226"> </tspan><tspan y="226"> </tspan><tspan y="226" font-family="SegoeUI, Segoe UI">خبرتك في توصيل المعل</tspan><tspan y="226">.</tspan><tspan x="0" y="276"> </tspan><tspan y="276"> </tspan><tspan y="276"> </tspan><tspan y="276"> </tspan><tspan y="276"> </tspan><tspan y="276"> </tspan><tspan y="276"> </tspan><tspan y="276"> </tspan><tspan y="276"> </tspan><tspan y="276"> </tspan><tspan y="276"> </tspan><tspan y="276"> </tspan><tspan y="276" font-family="SegoeUI, Segoe UI">شكرا لك على كل المعلومات التي منحتينا، كما أشكرك على هذه الت</tspan><tspan y="276">.</tspan><tspan x="0" y="326"> </tspan><tspan y="326"> </tspan><tspan y="326"> </tspan><tspan y="326" font-family="SegoeUI, Segoe UI">شكرا على كل </tspan><tspan y="326">.</tspan><tspan x="0" y="376"> </tspan><tspan y="376"> </tspan><tspan y="376"> </tspan><tspan y="376"> </tspan><tspan y="376"> </tspan><tspan y="376"> </tspan><tspan y="376"> </tspan><tspan y="376"> </tspan><tspan y="376"> </tspan><tspan y="376"> </tspan><tspan y="376"> </tspan><tspan y="376"> </tspan><tspan y="376" font-family="SegoeUI, Segoe UI">كل كلمات الشكر والإمتنان لا يمكن أن تعبر عن مدى تقديري</tspan><tspan y="376">.</tspan><tspan x="0" y="426"> </tspan><tspan y="426"> </tspan><tspan y="426" font-family="SegoeUI, Segoe UI">مع تحيات تلمي</tspan><tspan y="426">:</tspan><tspan x="0" y="476"> </tspan><tspan y="476"> </tspan><tspan y="476" font-family="SegoeUI, Segoe UI">سيدي محمد التدب</tspan><tspan y="476"></tspan></text>
    <text id="Ehsan_Wafaerad_Iran." data-name="Ehsan Wafaerad, 
Iran." transform="translate(6480 21669.479)" font-size="24" font-family="Lora-Bold, Lora" font-weight="700"><tspan x="0" y="24">Ehsan Wafaerad, </tspan><tspan x="0" y="74">Iran.</tspan></text>
    <text id="Sidi_Mohammed_Mauritania." data-name="Sidi Mohammed, 
Mauritania." transform="translate(7356 21669.479)" font-size="24" font-family="Lora-Bold, Lora" font-weight="700"><tspan x="0" y="24">Sidi Mohammed, </tspan><tspan x="0" y="74">Mauritania.</tspan></text>
    <g id="Group_414" data-name="Group 414" transform="translate(6340 16812.477)">
      <text id="REVIEWS" transform="translate(843 4263)" font-size="48" font-family="Montserrat" font-weight="700"><tspan x="0" y="0">REVIEWS</tspan></text>
      <line id="Line_21" data-name="Line 21" x2="150" transform="translate(885.5 4284.5)" fill="none" stroke="#707070" stroke-width="1" opacity="0.4"/>
    </g>
  </g>
</svg>
